<ttFont>
<head>
    <!-- Most of this table will be recalculated by the compiler -->
    <tableVersion value="1.0"/>
    <fontRevision value="1.0"/>
    <checkSumAdjustment value="0xbdfb94d1"/>
    <magicNumber value="0x5f0f3cf5"/>
    <flags value="00000000 00000011"/>
    <unitsPerEm value="2048"/>
    <created value="Tue May 30 14:33:21 2017"/>
    <modified value="Wed May 31 02:49:00 2017"/>
    <xMin value="-615"/>
    <yMin value="-545"/>
    <xMax value="2894"/>
    <yMax value="2234"/>
<macStyle value="00000000 00000010"/>
    <lowestRecPPEM value="3"/>
    <fontDirectionHint value="2"/>
    <indexToLocFormat value="0"/>
    <glyphDataFormat value="0"/>
  </head>
          <CharString index="0">
            rmoveto
            86 63 63 78 78 -63 63 -86 -86 -63 -63 -78 -78 63 -63 86 hvcurveto
            418 hmoveto
            86 63 63 78 78 -63 63 -86 -86 -63 -63 -78 -78 63 -63 86 hvcurveto
            return
          </CharString>
          <CharString index="1">
            285 rmoveto
            -93 -62 74 112 187 106 151 132 93 60 -74 58 callsubr
            -110 -157 -126 hvcurveto
            514 -285 rmoveto
            -31 callgsubr
            -387 hlineto
            -38 -178 rlineto
            -19 hlineto
            118 -35 -124 76 -159 hhcurveto
            -317 -235 -306 -411 -259 141 -160 227 139 110 57 115 81 hvcurveto
            18 hlineto
            -33 -156 rlineto
            return
          </CharString>
          <CharString index="2">
            rmoveto
            139 116 118 180 39 hvcurveto
            -205 hlineto
            -69 -18 -29 -37 -42 -79 -36 119 -146 hhcurveto
            -141 -115 58 callsubr
            -37 hvcurveto
            205 hlineto
            63 17 31 38 40 79 36 -119 146 hhcurveto
            return
          </CharString>
          <CharString index="3">
            279 915 1130 -105 callgsubr
            return
          </CharString>
          <CharString index="4">
            1104 rmoveto
            -398 hlineto
            -134 -630 rlineto
            -114 -24 -69 -66 -94 hhcurveto
            -94 -54 54 94 21 2 19 3 19 hvcurveto
            129 603 -14 callgsubr
            -142 -668 rlineto
            -9 -41 -5 -51 -47 vvcurveto
            -198 135 -127 211 154 129 77 131 66 vhcurveto
            8 hlineto
            -38 -180 51 callgsubr
            return
          </CharString>
          <CharString index="5">
            194 745 -25 rmoveto
            330 261 178 299 63 hvcurveto
            209 991 rlineto
            -424 hlineto
            -189 -897 rlineto
            -141 -30 -79 -73 -123 hhcurveto
            -112 -92 66 115 23 3 26 6 28 hvcurveto
            181 853 rlineto
            -424 hlineto
            -182 -857 rlineto
            -9 -42 -4 -43 -38 vvcurveto
            -289 234 -199 381 vhcurveto
            return
          </CharString>
          <CharString index="6">
            rmoveto
            -594 hlineto
            50 233 rlineto
            556 hlineto
            65 304 rlineto
            -556 hlineto
            49 234 rlineto
            593 hlineto
            72 336 rlineto
            -1017 -94 callsubr
            1018 hlineto
            return
          </CharString>
          <CharString index="7">
            760 rmoveto
            -152 97 -104 206 -70 vhcurveto
            100 -34 rlineto
            99 -34 31 -22 -38 vvcurveto
            -46 -43 -27 -77 -101 -67 51 74 -4 vhcurveto
            -374 hlineto
            -237 9 206 -149 321 hhcurveto
            317 205 149 231 148 -80 84 -212 72 hvcurveto
            -124 42 rlineto
            -105 36 -29 20 40 vvcurveto
            48 48 30 76 86 58 -46 -66 4 vhcurveto
            354 hlineto
            220 -8 -202 152 -286 hhcurveto
            -307 -198 -146 -226 hvcurveto
            return
          </CharString>
          <CharString index="8">
            -405 rmoveto
            338 204 121 302 158 hvcurveto
            568 1086 rlineto
            -422 hlineto
            -354 -808 -31 callsubr
            1 808 rlineto
            -407 hlineto
            111 -1084 rlineto
            1 -5 0 -10 -8 vvcurveto
            -65 -58 -32 -114 vhcurveto
            -106 hlineto
            -64 -305 rlineto
            return
          </CharString>
          <CharString index="9" raw="1">
            d50ad0f7 d505fe50 400ad50a cf9a0af9
            01fbd546 1d0b  
          </CharString>
          <CharString index="10">
            rmoveto
            58 hlineto
            83 28 -10 -29 -31 -38 -16 -74 -41 -44 5 7 -25 hvcurveto
            -35 -161 rlineto
            -9 24 54 -6 60 hhcurveto
            189 139 100 136 84 -48 52 -90 13 hvcurveto
            62 76 3 16 rlineto
            -191 hlineto
            -85 -102 rlineto
            return
          </CharString>
          <CharString index="11">
            rmoveto
            -314 hlineto
            -327 -336 rlineto
            296 hlineto
            163 180 rlineto
            8 hlineto
            85 -180 104 callgsubr
            return
          </CharString>
          <CharString index="12">
            rmoveto
            -314 hlineto
            -327 -336 52 callsubr
            173 192 rlineto
            8 hlineto
            91 -192 52 callsubr
            return
          </CharString>
          <CharString index="13">
            hlineto
            26 callgsubr
            return
          </CharString>
          <CharString index="14">
            -95 callsubr
            endchar
          </CharString>
          <CharString index="15">
            -307 -1443 return
          </CharString>
          <CharString index="16">
            307 1443 -90 callgsubr
            return
          </CharString>
          <CharString index="17" raw="1">
            e29df30a f2f87805 f7330681 06f71cfc
            7805f84e 06fb34f8 a005f770 e1f70bf7
            5af7601a f78bfb41 f74cfbc4 1efd1d06
            f7fafbcd 15f73606 f709cb58 25fb0a32
            36fb221f fb51060b  
          </CharString>
          <CharString index="18">
            232 1544 790 rmoveto
            -632 hlineto
            -60 -282 rlineto
            233 0 hlineto
            -112 -29 -105 -87 -130 hhcurveto
            -171 -93 117 188 298 155 222 218 132 90 -78 -102 8 hvcurveto
            406 hlineto
            1 8 1 14 10 vvcurveto
            252 -256 230 -370 -480 -336 -364 -508 -376 260 -245 385 409 266 232 429 72 vhcurveto
            return
          </CharString>
          <CharString index="19">
            rmoveto
            -387 -239 -262 -424 -288 202 -186 314 305 227 189 280 33 hvcurveto
            -378 hlineto
            -97 -21 -62 -57 -86 hhcurveto
            -84 -55 70 106 210 86 144 125 85 53 -58 -92 hvcurveto
            378 hlineto
            1 6 0 5 43 vvcurveto
            236 -211 175 -286 vhcurveto
            return
          </CharString>
          <CharString index="20">
            -96 callsubr
            endchar
          </CharString>
          <CharString index="21">
            -28 rmoveto
            287 216 149 239 60 hvcurveto
            -367 hlineto
            -73 -20 -58 -41 -86 hhcurveto
            -119 -75 79 129 1 0 11 0 hvcurveto
            751 hlineto
            11 54 8 87 50 vvcurveto
            275 -212 201 -286 -126 -125 -49 -84 -86 vhcurveto
            -20 hlineto
            76 -63 -146 56 -133 hhcurveto
            -264 -202 -147 -225 -46 hvcurveto
            358 hlineto
            58 21 52 30 79 hhcurveto
            77 54 -35 -50 -7 -1 -15 -2 -9 hvcurveto
            -13 -64 -241 -5 rlineto
            -323 -7 -182 -137 -236 vvcurveto
            -182 176 -129 249 163 164 69 105 79 vhcurveto
            19 hlineto
            -96 54 170 -78 148 hhcurveto
            -123 710 rmoveto
            105 26 87 71 104 hhcurveto
            94 67 -60 -84 -11 -2 -16 -2 -5 hvcurveto
            -967 -437 rmoveto
            -74 -51 36 53 64 59 42 91 2 hvcurveto
            173 5 -15 -72 rlineto
            -74 -17 -78 -56 -88 hhcurveto
            return
          </CharString>
          <CharString index="22">
            rmoveto
            342 321 rlineto
            -364 hlineto
            -300 -321 rlineto
            return
          </CharString>
          <CharString index="23">
            253 760 180 rmoveto
            8 hlineto
            -38 -180 51 callgsubr
            180 846 rlineto
            104 hlineto
            157 110 88 149 32 hvcurveto
            52 247 rlineto
            -302 hlineto
            -34 -162 rlineto
            -40 -8 -30 -24 -42 hhcurveto
            -382 hlineto
            -134 -630 rlineto
            -114 -24 -69 -66 -94 hhcurveto
            -94 -54 54 94 21 2 19 3 19 hvcurveto
            129 603 -14 callgsubr
            -142 -668 rlineto
            -9 -41 -5 -51 -47 vvcurveto
            -198 135 -127 211 154 129 77 131 66 vhcurveto
            return
          </CharString>
          <CharString index="24">
            rmoveto
            314 hlineto
            327 336 73 callsubr
            -173 -192 -31 callsubr
            -91 192 73 callsubr
            endchar
          </CharString>
          <CharString index="25">
            74 1269 626 rmoveto
            82 -15 75 -27 55 vhcurveto
            8 13 vlineto
            117 103 98 139 29 hvcurveto
            52 247 rlineto
            -302 hlineto
            -34 -162 rlineto
            -56 -12 -33 -28 -54 -97 -84 48 -186 hhcurveto
            -374 -286 -285 -373 -304 210 -198 324 374 282 282 372 hvcurveto
            -780 -152 rmoveto
            195 109 167 127 84 49 -76 -130 -195 -107 -164 -126 -86 -50 74 129 vhcurveto
            return
          </CharString>
          <CharString index="26">
            rmoveto
            -748 hlineto
            -38 -180 rlineto
            748 hlineto
            return
          </CharString>
          <CharString index="27">
            115 87 83 109 109 -87 83 -115 -115 -87 -83 -109 -109 87 -83 115 hvcurveto
            143 -65 89 callsubr
            -241 -1134 rlineto
            -53 -11 -40 -34 -65 hhcurveto
            -30 -25 3 4 -16 hvcurveto
            -61 -277 rlineto
            -9 41 77 -8 56 hhcurveto
            238 179 128 207 44 hvcurveto
            endchar
          </CharString>
          <CharString index="28">
            hmoveto
            314 228 192 268 150 -116 108 -152 35 hvcurveto
            1 8 rlineto
            199 37 141 144 194 vvcurveto
            172 -143 135 -286 vhcurveto
            -669 -94 callsubr
            664 1180 rmoveto
            164 hlineto
            103 52 -50 -71 -99 -80 -73 -121 hvcurveto
            -180 hlineto
            -126 -596 rmoveto
            70 333 rlineto
            186 hlineto
            117 61 -54 -83 -119 -87 -77 -141 hvcurveto
            return
          </CharString>
          <CharString index="29">
            rmoveto
            -3 -22 -2 -17 -16 vvcurveto
            -163 137 -116 194 244 172 132 202 48 99 callgsubr
            -92 -23 -73 -56 -94 hhcurveto
            -83 -48 43 74 10 1 10 2 11 hvcurveto
            return
          </CharString>
          <CharString index="30">
            rmoveto
            -206 124 -119 215 235 172 192 263 205 -125 117 -219 -235 -167 -187 -265 vhcurveto
            339 -101 rmoveto
            -21 -10 23 49 125 48 132 46 25 11 -21 -50 -122 -52 -136 -47 hvcurveto
            return
          </CharString>
          <CharString index="31">
            -413 79 callsubr
            122 564 rlineto
            152 33 95 73 131 hhcurveto
            67 48 -17 -24 51 hvcurveto
            75 343 rlineto
            20 -44 -45 9 -63 hhcurveto
            -119 -98 -73 -103 -50 hvcurveto
            -8 hlineto
            32 160 rlineto
            -387 hlineto
            return
          </CharString>
          <CharString index="32" raw="1">
            062f0a0b   
          </CharString>
          <CharString index="33" raw="1">
            fa11fae5 fa1315fc 6806f709 f8b8af1d
            f70bf8c3 05f86806 f805fcdc 15f849f7
            f9ea0afb 80f79dfc 35fc49fb eafbf2fc
            a5fbf2f7 7cfb9cf8 2a1ff800 f9ea15fb
            b2fb36fb 7afb51fb 2030c51d f735f77b
            f750f721 e7fb09fb 4c1e0b 
          </CharString>
          <CharString index="34">
            rmoveto
            -204 -31 137 -117 240 hhcurveto
            244 133 125 196 43 hvcurveto
            -229 hlineto
            -90 -22 -64 -46 -97 hhcurveto
            -90 -51 46 90 16 hvcurveto
            endchar
          </CharString>
          <CharString index="35">
            -92 115 696 rmoveto
            360 hlineto
            83 30 67 51 80 hhcurveto
            95 54 -56 -98 1 hvcurveto
            0 -304 vlineto
            -49 -233 rlineto
            317 hlineto
            -94 -16 -88 -78 -92 hhcurveto
            -83 -49 49 88 -6 hvcurveto
            -363 hlineto
            -281 14 175 -155 303 hhcurveto
            373 251 268 397 311 -188 184 -318 -301 -199 -153 -283 -64 hvcurveto
            return
          </CharString>
          <CharString index="36">
            rmoveto
            104 -64 84 -104 35 vhcurveto
            3 13 rlineto
            126 25 90 100 116 vvcurveto
            176 -192 123 -274 -318 -204 -146 -259 -43 vhcurveto
            366 hlineto
            76 15 58 43 87 hhcurveto
            66 47 -32 -45 -55 -58 -36 -89 hvcurveto
            -119 hlineto
            -48 -230 rlineto
            138 hlineto
            79 42 -27 -50 -55 -61 -42 -80 -95 -59 49 85 -8 hvcurveto
            -367 hlineto
            -262 3 202 -166 315 hhcurveto
            323 223 154 222 hvcurveto
            return
          </CharString>
          <CharString index="37">
            821 rmoveto
            8 hlineto
            46 -821 86 callgsubr
            678 1443 114 callsubr
            -350 -899 -31 callsubr
            -34 899 rlineto
            -328 hlineto
            -406 -899 -31 callsubr
            24 899 114 callsubr
            66 -1443 74 callgsubr
            return
          </CharString>
          <CharString index="38">
            148 326 -16 rmoveto
            304 172 161 268 172 hvcurveto
            661 1030 113 callgsubr
            -361 -669 rlineto
            -20 hlineto
            -92 669 rlineto
            -444 hlineto
            234 -1063 rlineto
            -43 -44 -62 -17 -62 hhcurveto
            -62 -28 10 0 hvcurveto
            -70 -330 rlineto
            0 65 -16 91 vhcurveto
            return
          </CharString>
          <CharString index="39">
            rmoveto
            10 29 52 8 33 hhcurveto
            59 38 -24 -39 -48 -53 -48 -79 -30 hvcurveto
            82 -136 rlineto
            164 68 116 135 123 vvcurveto
            106 -93 71 -141 -59 -68 -12 -17 -44 vhcurveto
            endchar
          </CharString>
          <CharString index="40">
            150 442 hmoveto
            78 368 154 162 212 -530 102 callsubr
            -322 768 644 675 91 callsubr
            -561 -590 -31 callsubr
            126 590 -90 callgsubr
            return
          </CharString>
          <CharString index="41">
            hmoveto
            193 908 rlineto
            8 hlineto
            120 -908 rlineto
            244 hlineto
            502 908 rlineto
            12 hlineto
            -195 -908 rlineto
            375 -38 callgsubr
            -529 hlineto
            -487 -905 -31 callsubr
            -119 905 rlineto
            -491 hlineto
            -306 -26 callgsubr
            return
          </CharString>
          <CharString index="42">
            995 hlineto
            65 304 113 callgsubr
            1 8 549 549 52 243 rlineto
            -957 hlineto
            -65 -304 rlineto
            456 hlineto
            -2 -8 -596 -584 rlineto
            return
          </CharString>
          <CharString index="43" raw="1">
            15611df7 f1fb83f7 9dfc3b1f 81fbe615
            f729ede0 0afb3cfb 7afb59fb 292ac51d
            f73bf77b f7591f0b  
          </CharString>
          <CharString index="44" raw="1">
            15f817f7 a5f7a7f8 14f7befb 6bf75ffb
            d3fc17fb a5fba7fc 14fbbef7 6bfb5ff7
            d31f9df7 b9153050 d2f716f7 81f708f7
            1cf70ee5 c643fb15 fb7bfb09 fb22fb0c
            1ffb91f8 26155cfb 7105f8f9 06baf771
            050b   
          </CharString>
          <CharString index="45">
            66 312 92 92 181 -404 rlineto
            428 hlineto
            -291 618 490 486 rlineto
            -452 hlineto
            -353 -386 -31 callsubr
            154 725 rlineto
            -395 62 callsubr
            return
          </CharString>
          <CharString index="46">
            1137 hlineto
            71 336 rlineto
            -618 8 hlineto
            773 834 57 265 rlineto
            -1108 hlineto
            -72 -336 rlineto
            589 -8 hlineto
            -772 -833 rlineto
            return
          </CharString>
          <CharString index="47">
            rmoveto
            290 hlineto
            -164 321 rlineto
            -332 hlineto
            return
          </CharString>
          <CharString index="48">
            143 852 774 rmoveto
            -117 -73 61 98 117 91 69 156 hvcurveto
            161 hlineto
            -73 -345 rlineto
            -153 -290 rmoveto
            0 82 vlineto
            -103 -484 rlineto
            48 callsubr
            -649 hlineto
            -416 -258 -195 -314 -167 71 -138 122 -69 hvcurveto
            -472 -560 rlineto
            486 hlineto
            return
          </CharString>
          <CharString index="49">
            442 361 348 531 return
          </CharString>
          <CharString index="50">
            469 582 rlineto
            19 hlineto
            -124 -582 rlineto
            387 -39 callgsubr
            -387 hlineto
            -467 -566 rlineto
            -19 hlineto
            121 566 rlineto
            -386 -13 callgsubr
            return
          </CharString>
          <CharString index="51">
            428 1161 -44 callgsubr
            -757 -576 -36 callgsubr
            return
          </CharString>
          <CharString index="52" raw="1">
            15f7a106 8c9305a9 8ea3a2a7 1ba59d7c
            76696d71 fb35211f fb60fb0e 5efb6005
            f90206b9 f76e05fb 7b8006a8 9d05f766
            f717c4ca f31af717 fb13e7fb 48fb58fb
            2efb0dfb 32861e0e  
          </CharString>
          <CharString index="53">
            17 768 -16 rmoveto
            307 231 308 410 259 -140 159 -226 -143 -122 -63 -110 -68 hvcurveto
            -10 hlineto
            108 496 rlineto
            -397 62 callsubr
            386 hlineto
            42 197 rlineto
            8 hlineto
            -130 42 129 -83 161 hhcurveto
            -109 312 rmoveto
            -93 -61 73 112 181 111 158 126 82 callsubr
            -188 -106 -151 -131 hvcurveto
            return
          </CharString>
          <CharString index="54">
            -97 callgsubr
            endchar
          </CharString>
          <CharString index="55">
            rmoveto
            -130 97 -99 126 76 54 25 52 38 vhcurveto
            6 1 rlineto
            -64 4 -44 -64 -48 hhcurveto
            -19 -19 10 13 -6 hvcurveto
            -284 hlineto
            -142 -6 131 -103 187 hhcurveto
            68 99 20 65 82 hvcurveto
            82 64 65 107 174 vvcurveto
            217 -125 125 -226 -185 -153 -122 -149 vhcurveto
            402 7 rmoveto
            -34 -26 115 callgsubr
            114 callgsubr
            114 callgsubr
            -27 -34 vhcurveto
            endchar
          </CharString>
          <CharString index="56">
            -79 643 586 rmoveto
            -69 -42 37 59 78 68 57 94 hvcurveto
            135 hlineto
            -49 -231 rlineto
            -125 -586 rmoveto
            37 callgsubr
            -617 hlineto
            -312 -223 -180 -251 -120 57 -98 106 -60 hvcurveto
            -360 -395 rlineto
            458 hlineto
            282 329 rlineto
            0 48 vlineto
            return
          </CharString>
          <CharString index="57">
            87 hmoveto
            397 hlineto
            170 797 rlineto
            202 hlineto
            103 callsubr
            -212 hlineto
            17 79 rlineto
            47 10 41 28 62 hhcurveto
            62 30 -6 -7 20 hvcurveto
            55 247 rlineto
            12 -38 -97 19 -102 hhcurveto
            -241 -139 -83 -197 -42 hvcurveto
            -29 -139 rlineto
            -162 80 callgsubr
            167 hlineto
            return
          </CharString>
          <CharString index="58">
            rmoveto
            70 41 -38 -59 -78 -72 -63 -90 hvcurveto
            -133 hlineto
            51 238 rlineto
            -509 -528 rmoveto
            617 hlineto
            307 229 211 262 205 -162 135 -243 hvcurveto
            -179 hlineto
            return
          </CharString>
          <CharString index="59">
            115 93 93 115 115 -93 93 -115 -115 -93 -93 -115 -115 93 -93 115 hvcurveto
            return
          </CharString>
          <CharString index="60">
            rmoveto
            70 273 rlineto
            208 95 callgsubr
            386 -39 callgsubr
            -932 hlineto
            -135 -526 rlineto
            -176 -45 -61 -85 -81 hhcurveto
            -26 -22 2 5 -22 hvcurveto
            -69 -325 rlineto
            -9 30 51 -6 41 hhcurveto
            290 152 156 402 103 hvcurveto
            endchar
          </CharString>
          <CharString index="61">
            72 callgsubr
            -39 -52 -83 -25 -98 hhcurveto
            -159 -61 88 154 33 hvcurveto
            83 389 rlineto
            -424 hlineto
            -81 -379 rlineto
            -355 -76 172 -249 331 hhcurveto
            148 104 33 46 83 hvcurveto
            8 hlineto
            -114 -539 rlineto
            return
          </CharString>
          <CharString index="62">
            542 rmoveto
            18 hlineto
            -115 -542 rlineto
            414 hlineto
            115 542 rlineto
            16 hlineto
            253 -542 rlineto
            430 hlineto
            -328 688 658 755 rlineto
            -438 hlineto
            -509 -587 rlineto
            -15 hlineto
            125 587 rlineto
            -414 hlineto
            -125 -587 rlineto
            -15 hlineto
            -259 587 rlineto
            -430 hlineto
            315 -696 -668 -747 rlineto
            491 hlineto
            return
          </CharString>
          <CharString index="63">
            rmoveto
            258 162 150 164 40 hvcurveto
            -240 hlineto
            -66 -18 -70 -62 -98 hhcurveto
            -89 -44 51 59 73 callgsubr
            -232 hlineto
            -4 -18 -1 -18 -18 vvcurveto
            -136 117 -124 218 vhcurveto
            endchar
          </CharString>
          <CharString index="64" raw="1">
            155e7eca f5a11ff7 00a2b1c5 b91bbb98
            5120741f fb017463 4e5d1b29 9815f7a8
            f76394f1 fba8fb64 05effbe1 15f77ff7
            40f754f7 9bf761fb 11f709fb 6ffb7ffb
            3bfb4ffb 9dfb62f7 10fb0bf7 6b1f0e
          </CharString>
          <CharString index="65">
            rmoveto
            226 138 134 176 112 -87 83 -116 -73 -56 -21 -43 -43 hvcurveto
            -5 hlineto
            35 89 rlineto
            339 hlineto
            46 216 rlineto
            -578 hlineto
            -119 -435 rlineto
            264 hlineto
            18 8 22 12 24 hhcurveto
            31 22 -22 -30 -40 -25 -25 -40 -33 -29 24 29 -2 hvcurveto
            0 -267 -10 vlineto
            -161 126 -106 192 vhcurveto
            endchar
          </CharString>
          <CharString index="66">
            1129 rmoveto
            -115 -543 rlineto
            -300 hlineto
            303 543 rlineto
            -128 -1129 rmoveto
            1019 hlineto
            71 336 rlineto
            -643 hlineto
            50 233 rlineto
            606 hlineto
            65 304 rlineto
            -606 hlineto
            49 234 rlineto
            643 hlineto
            72 336 rlineto
            -1407 hlineto
            -847 -26 callgsubr
            426 hlineto
            160 286 rlineto
            403 hlineto
            return
          </CharString>
          <CharString index="67">
            rmoveto
            271 321 rlineto
            -359 hlineto
            -220 -321 rlineto
            endchar
          </CharString>
          <CharString index="68">
            rmoveto
            215 340 rlineto
            -373 hlineto
            -92 -340 rlineto
            597 -20 0 callsubr
            -804 -3 callgsubr
          </CharString>
          <CharString index="69">
            -104 836 1104 rmoveto
            4 -42 2 -40 -57 vvcurveto
            -419 -102 -254 -167 -92 -47 40 87 26 4 31 8 36 vhcurveto
            126 592 rlineto
            -365 hlineto
            -115 -538 rlineto
            -22 -105 -9 -62 -51 vvcurveto
            -236 168 -140 282 445 261 359 613 59 -5 62 -7 39 vhcurveto
            return
          </CharString>
          <CharString index="70" raw="1">
            15f710f8 daa20af7 08f8b305 9806f7d5
            fcb305f8 6b06fc5f f994ad2f f969f993
            e60afcb8 fcda050b  
          </CharString>
          <CharString index="71">
            279 754 -25 rmoveto
            494 321 364 560 349 -231 220 -365 -362 -285 -188 -306 -103 hvcurveto
            427 hlineto
            106 59 97 56 122 hhcurveto
            166 86 -118 -185 -31 hvcurveto
            -1 -6 rlineto
            -966 hlineto
            -27 -58 -25 -130 -87 vvcurveto
            -345 251 -232 373 vhcurveto
            23 332 rmoveto
            -136 -85 77 123 14 1 15 2 15 hvcurveto
            537 hlineto
            -145 -43 -130 -99 -146 hhcurveto
            return
          </CharString>
          <CharString index="72">
            rmoveto
            -48 callsubr
            return
          </CharString>
          <CharString index="73">
            rmoveto
            -587 hlineto
            233 1097 -90 callgsubr
            1011 hlineto
            return
          </CharString>
          <CharString index="74">
            -63 500 745 rmoveto
            64 19 67 44 87 hhcurveto
            119 70 -80 -102 -10 -1 -11 -2 -11 hvcurveto
            -752 hlineto
            -14 -56 -6 -74 -60 vvcurveto
            -288 206 -188 296 376 250 276 378 318 -206 187 -316 -294 -210 -155 -232 -57 vhcurveto
            475 -498 rmoveto
            -95 -66 60 84 11 1 16 2 5 hvcurveto
            374 hlineto
            -105 -26 -87 -71 -103 hhcurveto
            return
          </CharString>
          <CharString index="75">
            rmoveto
            -530 -406 -396 -517 -462 327 -305 496 40 37 2 5 40 hvcurveto
            41 194 rlineto
            -3 -13 -39 -4 -39 hhcurveto
            -413 -1 -254 223 360 vvcurveto
            401 307 310 395 322 215 -204 -304 -211 -89 -190 -98 -40 -25 28 45 10 0 12 5 22 vhcurveto
            111 520 rlineto
            -256 hlineto
            -25 -127 -20 3 rlineto
            98 -23 -86 60 -117 hhcurveto
            -214 -173 -212 -264 -214 114 -140 173 97 72 42 104 59 hvcurveto
            20 6 rlineto
            -9 -1 -12 -12 vvcurveto
            -95 109 -61 156 275 204 258 346 414 -304 280 -450 vhcurveto
            24 -808 rmoveto
            -132 -64 -101 -84 -67 -42 55 86 126 71 105 85 64 37 -51 -88 vhcurveto
            endchar
          </CharString>
          <CharString index="76">
            rlineto
            -8 hlineto
            return
          </CharString>
          <CharString index="77">
            rmoveto
            317 hlineto
            231 341 rlineto
            -392 hlineto
            return
          </CharString>
          <CharString index="78">
            rmoveto
            187 147 181 277 21 hvcurveto
            -256 hlineto
            -93 -9 -45 -40 -54 -121 -47 155 -203 hhcurveto
            -196 -143 -174 -266 -14 hvcurveto
            257 hlineto
            81 12 48 41 54 120 53 -162 189 hhcurveto
            return
          </CharString>
          <CharString index="79">
            rmoveto
            302 hlineto
            298 281 rlineto
            -338 hlineto
            return
          </CharString>
          <CharString index="80">
            rmoveto
            -111 287 96 callsubr
            172 -287 rlineto
            return
          </CharString>
          <CharString index="81">
            rmoveto
            40 callsubr
          </CharString>
          <CharString index="82" raw="1">
            15f7fbf7 bbf755f7 c1f21ffc 35062657
            fb014efb 141bfb38 2af71bf7 43b21f8d
            9405fa57 06a6b9a8 f730ee1a f7ecfb6b
            f759fc0c fc7dfbeb fc10fcb2 fbf3f771
            fb70f7f4 1efc1cf9 1d15caf7 be05fb51
            06526ca8 bfb5a3cb abb61ffb d506553f
            703a321a fb41f71e fb01f770 1ef88af7
            b415f71b b4f718ee f71f1bf7 1ee43ffb
            097e8a7d 897d1f0e  
          </CharString>
          <CharString index="83" raw="1">
            15f72806 bef78605 fb250654 6ea5bdb4
            9bbcb6cb 1ffbac06 5f516838 381afb46
            f72245f7 501ef81b f778211d 0e
          </CharString>
          <CharString index="84">
            174 -121 132 -167 -87 -73 -36 -45 -44 vhcurveto
            -17 hlineto
            152 37 162 106 177 hhcurveto
            11 10 0 -1 10 hvcurveto
            21 117 rlineto
            1 -19 -15 1 -21 hhcurveto
            -290 -241 -194 -325 -265 159 -140 185 184 139 138 185 hvcurveto
            return
          </CharString>
          <CharString index="85">
            404 rmoveto
            154 -95 120 -161 48 vhcurveto
            1 9 rlineto
            208 27 136 137 183 vvcurveto
            217 -246 169 -317 -340 -250 -170 -231 -123 82 -104 129 -41 vhcurveto
            -2 -7 rlineto
            -255 -44 -159 -155 -205 vvcurveto
            -243 252 -170 361 383 273 179 250 vhcurveto
            -617 202 rmoveto
            110 77 -65 -94 -103 -89 -77 -119 -109 -76 65 93 103 89 78 117 hvcurveto
            -47 412 rmoveto
            90 82 75 98 89 67 -61 -81 -88 -83 -75 -98 -89 -66 59 81 vhcurveto
            endchar
          </CharString>
          <CharString index="86">
            279 1067 -468 rmoveto
            52 callgsubr
            106 111 79 142 100 hvcurveto
            223 157 184 259 363 vvcurveto
            349 -239 265 -423 -443 -356 -350 -529 -350 246 -264 412 8 14 1 1 7 vhcurveto
            -8 vlineto
            -106 -61 -77 -98 -96 44 callgsubr
            90 1297 rmoveto
            -286 -166 -230 -194 -146 -95 58 callgsubr
            165 231 194 146 96 -117 -184 vhcurveto
            return
          </CharString>
          <CharString index="87">
            rmoveto
            268 hlineto
            239 230 rlineto
            -314 hlineto
            -118 -765 rmoveto
            139 98 96 132 132 -98 96 -139 -139 -98 -96 -132 -132 98 -96 139 hvcurveto
            -78 228 rmoveto
            45 33 33 45 45 33 -33 -45 -45 -33 -33 -45 -45 -33 33 45 vhcurveto
            endchar
          </CharString>
          <CharString index="88">
            78 919 591 rmoveto
            66 293 rlineto
            -177 hlineto
            -109 -68 57 82 11 hvcurveto
            86 11 79 55 112 hhcurveto
            113 77 -60 -86 -3 hvcurveto
            383 hlineto
            267 38 -226 183 -369 hhcurveto
            -348 -229 -155 -251 -23 hvcurveto
            -14 -148 83 -119 142 -36 -2 -7 rcurveline
            -204 -20 -150 -141 -13 -186 rrcurveto
            -253 -18 238 -177 359 hhcurveto
            365 235 181 315 45 hvcurveto
            -406 hlineto
            -108 -10 -86 -66 -132 hhcurveto
            -112 -78 64 85 8 hvcurveto
            88 8 90 57 129 hhcurveto
            return
          </CharString>
          <CharString index="89">
            rmoveto
            -20 -90 rlineto
            -6 -28 -9 -44 -49 vvcurveto
            -128 59 -162 312 vhcurveto
            147 hlineto
            60 283 rlineto
            -43 hlineto
            -84 -42 18 79 24 4 31 8 37 hvcurveto
            27 127 rlineto
            5 25 4 25 24 vvcurveto
            96 -51 83 -178 15 vhcurveto
            5 20 192 16 102 73 33 148 rlinecurve
            35 159 rlineto
            142 31 48 47 115 hhcurveto
            43 hlineto
            61 284 rlineto
            -147 hlineto
            -317 -145 -101 -301 -67 hvcurveto
            -22 -99 rlineto
            -155 -34 -67 -49 -142 hhcurveto
            -73 -347 rlineto
            133 35 -48 -68 -27 -5 -29 -7 -31 hvcurveto
            endchar
          </CharString>
          <CharString index="90">
            1104 rmoveto
            -394 hlineto
            -139 -655 rlineto
            -107 -23 -61 -62 -81 hhcurveto
            -72 -46 49 77 21 2 21 5 25 hvcurveto
            132 631 rlineto
            -376 hlineto
            -137 -656 rlineto
            -105 -22 -62 -63 -81 hhcurveto
            -72 -46 49 77 21 2 21 5 25 hvcurveto
            132 631 81 callgsubr
            -144 -686 rlineto
            -10 -48 -5 -46 -41 vvcurveto
            -181 128 -130 178 158 129 75 121 83 vhcurveto
            8 hlineto
            -122 38 105 -74 134 hhcurveto
            138 129 76 127 71 hvcurveto
            8 hlineto
            -38 -175 rlineto
            383 hlineto
            endchar
          </CharString>
          <CharString index="91">
            rmoveto
            -7 23 84 -7 62 hhcurveto
            253 140 95 209 53 hvcurveto
            30 callgsubr
            -374 100 rlineto
            30 callgsubr
            -92 -19 -40 -36 -76 hhcurveto
            -21 -16 1 2 -12 hvcurveto
            return
          </CharString>
          <CharString index="92">
            rmoveto
            -142 281 rlineto
            -306 hlineto
            178 -281 rlineto
            return
          </CharString>
          <CharString index="93">
            -13 857 92 callgsubr
            40 44 84 86 73 165 108 hvcurveto
            181 118 118 198 239 vvcurveto
            308 -207 198 -323 -374 -286 -286 -372 -304 210 -198 324 vhcurveto
            4 3 0 4 hhcurveto
            -5 vlineto
            -97 -41 -104 -94 94 callsubr
            84 59 11 15 34 vhcurveto
            -368 935 rmoveto
            195 109 167 127 84 49 -76 -130 -195 -107 -164 -126 -86 -50 74 129 vhcurveto
            return
          </CharString>
          <CharString index="94">
            591 rmoveto
            156 hlineto
            114 70 -52 -84 -92 -80 -66 -112 -130 -91 90 106 23 hvcurveto
            30 callgsubr
            -388 hlineto
            -6 -31 -2 -26 -25 vvcurveto
            -264 229 -172 360 350 255 187 258 148 -93 110 -156 38 vhcurveto
            1 8 rlineto
            202 26 142 146 181 vvcurveto
            229 -224 162 -317 -319 -232 -165 -266 -55 vhcurveto
            381 hlineto
            70 23 72 42 95 hhcurveto
            107 69 -50 -76 -88 -80 -51 -136 hvcurveto
            -168 hlineto
            endchar
          </CharString>
          <CharString index="95">
            542 rmoveto
            227 -173 182 -214 -77 -59 -16 -36 -57 vhcurveto
            -20 hlineto
            16 27 28 37 37 41 124 134 238 203 153 102 rrcurveto
            -583 hlineto
            -99 -84 -157 -145 -70 -72 rrcurveto
            -229 -232 -113 -222 -218 vvcurveto
            -301 244 -209 353 382 276 244 338 vhcurveto
            -616 143 rmoveto
            111 88 -91 -111 -4 hvcurveto
            -111 -4 -94 -91 -111 hhcurveto
            -111 -88 91 111 4 hvcurveto
            111 4 94 91 111 hhcurveto
            endchar
          </CharString>
          <CharString index="96">
            -84 callgsubr
            endchar
          </CharString>
          <CharString index="97">
            -148 661 855 rmoveto
            64 39 -26 -41 -38 -42 -24 -101 -20 hvcurveto
            -199 -38 rlineto
            -245 -47 -127 -117 -178 vvcurveto
            -214 188 -140 286 304 207 140 246 60 vhcurveto
            -375 hlineto
            -71 -35 -59 -36 -81 hhcurveto
            -70 -45 28 45 48 43 26 123 25 hvcurveto
            191 38 rlineto
            235 47 127 121 178 vvcurveto
            193 -187 132 -272 -307 -193 -128 -244 -61 vhcurveto
            382 hlineto
            55 12 63 40 75 hhcurveto
            endchar
          </CharString>
          <CharString index="98">
            rmoveto
            -24 69 -15 91 77 vvcurveto
            225 111 264 150 131 vhcurveto
            -299 hlineto
            -172 -156 -97 -217 -231 vvcurveto
            -102 20 -78 45 -73 vhcurveto
            endchar
          </CharString>
          <CharString index="99">
            rmoveto
            280 hlineto
            279 320 rlineto
            -309 hlineto
            -683 -320 rmoveto
            280 hlineto
            279 320 rlineto
            -308 hlineto
            endchar
          </CharString>
          <CharString index="100">
            -42 518 -28 rmoveto
            355 287 174 253 60 hvcurveto
            -407 hlineto
            -95 -43 -77 -46 -116 hhcurveto
            -90 -49 29 53 57 44 30 103 hvcurveto
            161 hlineto
            53 260 rlineto
            -144 hlineto
            -96 -36 23 48 70 70 18 83 121 47 -33 -85 6 hvcurveto
            392 hlineto
            272 -14 -176 132 -350 hhcurveto
            -359 -219 -136 -224 -82 51 -69 92 -43 hvcurveto
            -4 -19 rlineto
            -150 -42 -92 -108 -133 vvcurveto
            -204 163 -100 334 vhcurveto
            return
          </CharString>
          <CharString index="101">
            771 rmoveto
            -110 -78 73 104 113 88 83 120 107 81 -80 -106 -111 -85 -76 -123 hvcurveto
            -593 152 rmoveto
            -247 190 -182 256 154 114 54 113 80 vhcurveto
            7 hlineto
            -209 -15 -134 -156 -164 hhcurveto
            -96 -73 42 61 -7 hvcurveto
            -405 hlineto
            -240 11 253 -184 319 hhcurveto
            416 293 352 499 408 -215 234 -373 -353 -258 -231 -314 hvcurveto
            endchar
          </CharString>
          <CharString index="102">
            -106 558 -25 rmoveto
            310 239 175 255 40 hvcurveto
            -386 hlineto
            -81 -26 -63 -43 -92 hhcurveto
            -75 -49 32 48 55 47 27 94 hvcurveto
            140 hlineto
            50 230 rlineto
            -123 hlineto
            -61 -42 30 44 51 45 33 68 84 48 -40 -69 hvcurveto
            384 hlineto
            205 14 -144 200 -406 hhcurveto
            -287 -203 -133 -189 -81 44 -66 79 -39 hvcurveto
            -4 -19 rlineto
            -157 -34 -95 -107 -141 vvcurveto
            -209 206 -134 321 vhcurveto
            return
          </CharString>
          <CharString index="103">
            657 hlineto
            67 316 rlineto
            -283 hlineto
            2 8 rlineto
            241 114 134 228 237 vvcurveto
            341 -264 225 -395 -460 -378 -269 -493 -146 64 -140 130 -97 vhcurveto
            -2 -8 rlineto
            -262 hlineto
            -67 -316 rlineto
            628 hlineto
            82 388 rlineto
            -102 79 -50 86 147 vvcurveto
            258 157 172 220 164 125 -114 -177 -203 -126 -174 -200 -74 vhcurveto
            endchar
          </CharString>
          <CharString index="104">
            -25 rmoveto
            371 265 244 341 238 -172 179 -230 -137 -99 -43 -74 -77 hvcurveto
            -8 hlineto
            87 262 rlineto
            666 hlineto
            71 321 rlineto
            -1001 hlineto
            -241 -825 rlineto
            377 hlineto
            51 39 79 38 65 hhcurveto
            116 75 -74 -116 -124 -98 -98 -124 -119 -85 71 105 -7 hvcurveto
            30 callgsubr
            -380 hlineto
            -4 -61 2 39 -24 vvcurveto
            -261 239 -189 330 vhcurveto
            endchar
          </CharString>
          <CharString index="105">
            220 1485 541 rmoveto
            -412 hlineto
            -146 -44 -98 -86 -134 hhcurveto
            -136 -106 97 166 hvcurveto
            464 hlineto
            65 306 rlineto
            -492 hlineto
            153 41 132 100 137 hhcurveto
            139 89 -87 -141 8 hvcurveto
            413 hlineto
            6 0 10 15 vvcurveto
            321 -263 228 -370 -466 -322 -352 -509 -410 236 -252 386 380 283 228 353 70 vhcurveto
            return
          </CharString>
          <CharString index="106">
            651 692 707 751 rlineto
            -310 hlineto
            -631 -670 -727 -773 rlineto
            return
          </CharString>
          <CharString index="107">
            rmoveto
            -40 callgsubr
            return
          </CharString>
          <CharString index="108" raw="1">
            fbf515f8 2f06f711 f8e205fc 2f06fb5f
            f9f715f7 2dfee405 f82f06f9 00fae405
            fc4106fb cafd6d05 840671f9 6d050b
          </CharString>
          <CharString index="109" raw="1">
            f78f15f9 b3f8f6d1 f7dffdb4 fcfa05f7
            a0fcfe15 f845f7d6 f821f8ab f807fb67
            f770fbf7 fc44fbd2 fc1dfcab fc08f766
            fb73f7f3 1ffb19f8 c715f7e1 f727f7c4
            f734ecc3 34fb2afb dffb2afb c9fb352d
            54e4f72b 1e0e  
          </CharString>
          <CharString index="110">
            -103 1156 409 rmoveto
            -360 hlineto
            -82 -18 -66 -53 -82 hhcurveto
            -101 -60 63 107 -1 hvcurveto
            0 305 vlineto
            49 233 rlineto
            -318 hlineto
            94 19 73 62 92 hhcurveto
            86 59 -53 -83 6 hvcurveto
            363 hlineto
            281 -14 -174 154 -304 hhcurveto
            -371 -254 -269 -394 -318 186 -179 328 305 199 156 281 53 hvcurveto
            return
          </CharString>
          <CharString index="111">
            -285 rmoveto
            383 hlineto
            281 548 15 73 rlineto
            -649 hlineto
            -72 -336 rlineto
            184 hlineto
            return
          </CharString>
          <CharString index="112">
            187 902 -101 callgsubr
            -47 1555 -70 callgsubr
            return
          </CharString>
          <CharString index="113">
            rmoveto
            89 callgsubr
            -611 hlineto
            -52 -246 rlineto
            682 334 rmoveto
            89 callgsubr
            -611 100 callsubr
          </CharString>
          <CharString index="114">
            974 rmoveto
            382 hlineto
            113 22 79 62 107 hhcurveto
            89 64 -52 -77 -91 -59 -60 -292 -214 hvcurveto
            -498 -364 -64 -291 rlineto
            1127 hlineto
            68 320 rlineto
            -566 hlineto
            1 8 218 157 rlineto
            390 281 88 106 184 vvcurveto
            240 -224 172 -312 -340 -262 -209 -285 -18 vhcurveto
            endchar
          </CharString>
          <CharString index="115" raw="1">
            f74da7f8 c115f969 06d3f7e4 05fd6906
            f775f8ba a90a  
          </CharString>
          <CharString index="116">
            hmoveto
            400 hlineto
            45 214 rlineto
            172 hlineto
            69 324 rlineto
            -172 hlineto
            193 905 rlineto
            -605 hlineto
            -317 -365 -199 -243 -184 -254 -72 -367 rcurveline
            715 hlineto
            -289 316 rmoveto
            135 193 200 251 158 178 rrcurveto
            8 hlineto
            -134 -630 rlineto
            -368 hlineto
            endchar
          </CharString>
          <CharString index="117">
            -103 callsubr
            endchar
          </CharString>
          <CharString index="118">
            262 617 rlineto
            -370 hlineto
            -184 -617 rlineto
            return
          </CharString>
          <CharString index="119">
            rmoveto
            314 hlineto
            327 33 callsubr
            -163 45 callsubr
            -85 180 rlineto
            -272 hlineto
            return
          </CharString>
          <CharString index="120">
            rmoveto
            284 hlineto
            312 305 rlineto
            -279 hlineto
            -144 -153 rlineto
            -22 hlineto
            -78 153 rlineto
            -255 hlineto
            42 -395 -10 callgsubr
          </CharString>
          <CharString index="121">
            hmoveto
            108 511 rlineto
            515 hlineto
            69 318 rlineto
            -516 hlineto
            59 278 rlineto
            571 hlineto
            72 336 rlineto
            -1013 -94 callsubr
            return
          </CharString>
          <CharString index="122">
            321 rlineto
            -956 hlineto
            return
          </CharString>
          <CharString index="123">
            rmoveto
            -13 44 70 -8 62 hhcurveto
            294 138 105 264 56 hvcurveto
            return
          </CharString>
          <CharString index="124">
            rmoveto
            92 66 68 82 82 -66 68 -92 -92 -66 -68 -82 -82 66 -68 92 hvcurveto
            467 584 -81 callsubr
            endchar
          </CharString>
          <CharString index="125">
            -667 442 hmoveto
            -91 callsubr
            365 1559 -107 callsubr
            endchar
          </CharString>
          <CharString index="126">
            138 907 hmoveto
            745 -37 callgsubr
            -481 hlineto
            -444 -1016 -31 callsubr
            -19 1016 rlineto
            -473 hlineto
            148 -26 callgsubr
            return
          </CharString>
          <CharString index="127">
            328 hlineto
            359 503 46 217 rlineto
            -625 hlineto
            -46 -218 rlineto
            306 -5 hlineto
            endchar
          </CharString>
          <CharString index="128" raw="1">
            a41d0e   
          </CharString>
          <CharString index="129">
            135 60 callsubr
            return
          </CharString>
          <CharString index="130">
            rlineto
            -424 72 callsubr
            return
          </CharString>
          <CharString index="131">
            rlineto
            410 hlineto
            43 203 rlineto
            58 54 63 43 87 hhcurveto
            88 47 -48 -90 -93 -67 -85 -118 -35 -29 4 5 -25 hvcurveto
            -64 -302 rlineto
            -10 25 55 -7 73 hhcurveto
            371 241 239 339 231 -137 160 -253 -124 -95 -43 -52 -77 hvcurveto
            return
          </CharString>
          <CharString index="132" raw="1">
            15f20afd c77c1d0e  
          </CharString>
          <CharString index="133">
            hmoveto
            147 692 rlineto
            17 hlineto
            89 -606 rlineto
            264 hlineto
            346 606 rlineto
            18 hlineto
            -147 -692 rlineto
            364 -39 callgsubr
            -525 hlineto
            -324 -597 rlineto
            -20 hlineto
            -67 597 rlineto
            -526 -13 callgsubr
            endchar
          </CharString>
          <CharString index="134">
            1104 rmoveto
            -1009 80 callgsubr
            306 95 callgsubr
            397 hlineto
            173 815 rlineto
            306 hlineto
            endchar
          </CharString>
          <CharString index="135">
            -241 rmoveto
            368 hlineto
            118 555 rlineto
            -477 hlineto
            -68 -314 rlineto
            110 hlineto
            return
          </CharString>
          <CharString index="136">
            40 192 rlineto
            -4 -12 -29 -5 -32 hhcurveto
            -56 -49 return
          </CharString>
          <CharString index="137">
            -88 callgsubr
            endchar
          </CharString>
          <CharString index="138">
            rmoveto
            237 194 194 237 237 -194 194 -237 -237 -194 -194 -237 -237 194 -194 237 hvcurveto
            272 vmoveto
            -85 -72 74 85 85 72 74 85 85 72 -74 -85 -85 -72 -74 -85 hvcurveto
            endchar
          </CharString>
          <CharString index="139">
            327 -46 callgsubr
            endchar
          </CharString>
          <CharString index="140">
            336 rlineto
            -296 hlineto
            return
          </CharString>
          <CharString index="141">
            -259 394 1 6 433 421 rlineto
            -367 hlineto
            -404 -406 -2 -8 rlineto
            0 260 -407 0 vhcurveto
            return
          </CharString>
          <CharString index="142">
            rmoveto
            74 349 rlineto
            -1138 hlineto
            -74 -349 rlineto
            return
          </CharString>
          <CharString index="143">
            -209 -617 rlineto
            322 hlineto
            257 617 rlineto
            return
          </CharString>
          <CharString index="144" raw="1">
            291d0e   
          </CharString>
          <CharString index="145">
            -62 callgsubr
            -424 hlineto
            return
          </CharString>
          <CharString index="146">
            -153 1103 346 -34 callsubr
            -554 -482 -103 callgsubr
            return
          </CharString>
          <CharString index="147">
            -92 callgsubr
            endchar
          </CharString>
          <CharString index="148">
            rmoveto
            285 192 -229 331 336 245 -187 269 -335 -246 -210 303 -283 -192 220 -318 -332 -247 186 -267 331 247 rlineto
            endchar
          </CharString>
          <CharString index="149">
            rmoveto
            50 -130 32 -200 2 -259 5 -519 -208 -399 -255 -249 rrcurveto
            423 hlineto
            287 279 164 398 415 vvcurveto
            241 -45 264 -84 159 vhcurveto
            endchar
          </CharString>
          <CharString index="150">
            rlineto
            -397 hlineto
            -173 -814 rlineto
            -325 hlineto
            173 814 68 callsubr
            return
          </CharString>
          <CharString index="151">
            rmoveto
            1086 hlineto
            66 309 rlineto
            -1086 hlineto
            1161 358 rmoveto
            -538 111 5 20 582 111 73 331 -1146 -298 -61 -288 1019 -298 rlineto
            endchar
          </CharString>
          <CharString index="152">
            -180 -31 callsubr
            return
          </CharString>
          <CharString index="153" raw="1">
            961d0e   
          </CharString>
          <CharString index="154">
            rmoveto
            394 77 callsubr
            -394 hlineto
            88 416 rlineto
            -370 hlineto
            -88 -416 rlineto
            -378 101 callsubr
            378 hlineto
            -88 -416 rlineto
            370 hlineto
            endchar
          </CharString>
          <CharString index="155">
            424 -38 callgsubr
            return
          </CharString>
          <CharString index="156">
            124 188 40 vhcurveto
            -280 hlineto
            -67 return
          </CharString>
          <CharString index="157">
            342 321 rlineto
            -364 hlineto
            -300 -321 rlineto
            endchar
          </CharString>
          <CharString index="158">
            rlineto
            -424 hlineto
            -236 -1107 rlineto
            -298 97 callgsubr
            -298 45 callgsubr
            return
          </CharString>
          <CharString index="159">
            rlineto
            276 hlineto
            return
          </CharString>
          <CharString index="160">
            vvcurveto
            129 114 57 131 186 103 -48 -20 42 vhcurveto
            63 315 rlineto
            26 -56 -151 62 -262 hhcurveto
            -332 -240 -157 -289 return
          </CharString>
          <CharString index="161">
            hmoveto
            424 hlineto
            38 callsubr
            0 -414 -242 0 vhcurveto
            -77 -365 rlineto
            0 404 235 0 vhcurveto
            8 hlineto
            endchar
          </CharString>
          <CharString index="162">
            396 -38 callgsubr
            -396 hlineto
            endchar
          </CharString>
          <CharString index="163">
            85 callgsubr
            58 12 14 35 vhcurveto
            return
          </CharString>
          <CharString index="164">
            hlineto
            -235 -1107 rlineto
            return
          </CharString>
          <CharString index="165">
            -115 -178 return
          </CharString>
          <CharString index="166">
            rmoveto
            -374 -1756 rlineto
            659 hlineto
            62 294 rlineto
            -266 hlineto
            249 1168 rlineto
            266 hlineto
            63 294 rlineto
            endchar
          </CharString>
          <CharString index="167">
            1842 -70 callgsubr
            return
          </CharString>
          <CharString index="168">
            hhcurveto
            96 59 -82 -129 -4 hvcurveto
            -166 -6 -101 -135 -119 hhcurveto
            return
          </CharString>
          <CharString index="169">
            hlineto
            -308 -26 callgsubr
            return
          </CharString>
          <CharString index="170">
            25 rmoveto
            -348 hlineto
            -66 -310 rlineto
            348 hlineto
            return
          </CharString>
          <CharString index="171">
            rmoveto
            554 -239 -4 -20 -656 -239 -86 -403 1131 485 66 310 -925 485 rlineto
            endchar
          </CharString>
          <CharString index="172">
            rmoveto
            -554 239 4 20 656 239 86 403 -1131 -485 -66 -310 925 -485 rlineto
            endchar
          </CharString>
          <CharString index="173">
            hlineto
            85 400 -14 callgsubr
            return
          </CharString>
          <CharString index="174">
            rmoveto
            -9 callgsubr
            endchar
          </CharString>
          <CharString index="175">
            rlineto
            -396 -13 callgsubr
            return
          </CharString>
          <CharString index="176">
            -26 callgsubr
            423 hlineto
            return
          </CharString>
          <CharString index="177">
            -21 -2 -21 -5 return
          </CharString>
          <CharString index="178">
            hmoveto
            460 hlineto
            803 1124 68 319 rlineto
            -1110 hlineto
            -68 -320 rlineto
            664 -8 hlineto
            endchar
          </CharString>
          <CharString index="179">
            -94 callsubr
            424 hlineto
            return
          </CharString>
          <CharString index="180">
            rlineto
            -276 hlineto
            return
          </CharString>
          <CharString index="181" raw="1">
            15fa5006 0b  
          </CharString>
          <CharString index="182">
            -34 callsubr
            endchar
          </CharString>
          <CharString index="183">
            131 617 rlineto
            -340 hlineto
            -131 -617 rlineto
            return
          </CharString>
          <CharString index="184">
            hlineto
            96 callgsubr
            return
          </CharString>
          <CharString index="185">
            -657 447 83 callgsubr
          </CharString>
          <CharString index="186">
            -8 hmoveto
            397 hlineto
            return
          </CharString>
          <CharString index="187">
            rlineto
            386 hlineto
            return
          </CharString>
          <CharString index="188">
            hhcurveto
            -19 -23 2 3 -13 hvcurveto
            return
          </CharString>
          <CharString index="189">
            93 61 -73 -112 return
          </CharString>
          <CharString index="190">
            rmoveto
            374 1756 113 callsubr
            -374 -1756 rlineto
            endchar
          </CharString>
          <CharString index="191">
            236 1104 -14 callgsubr
            return
          </CharString>
          <CharString index="192">
            -117 -184 -286 return
          </CharString>
          <CharString index="193" raw="1">
            05fc4606 0b  
          </CharString>
          <CharString index="194">
            -41 callgsubr
            rmoveto
            -282 -617 rlineto
            370 hlineto
            204 617 rlineto
            return
          </CharString>
          <CharString index="195">
            76 callgsubr
            1847 hlineto
            return
          </CharString>
          <CharString index="196">
            rmoveto
            -7 callgsubr
            return
          </CharString>
          <CharString index="197" raw="1">
            15f8001c 06b105fb 2706fc00 1cf94f05
            0b   
          </CharString>
          <CharString index="198">
            rlineto
            -480 hlineto
            return
          </CharString>
          <CharString index="199">
            1631 18 callgsubr
            return
          </CharString>
          <CharString index="200">
            hlineto
            236 1107 -90 callgsubr
            return
          </CharString>
          <CharString index="201">
            -118 69 callgsubr
            return
          </CharString>
          <CharString index="202" raw="1">
            f7f0f8a7 f7f10b  
          </CharString>
          <CharString index="203">
            rlineto
            -322 hlineto
            return
          </CharString>
          <CharString index="204">
            hlineto
            173 814 rlineto
            -397 hlineto
            -173 -814 rlineto
            return
          </CharString>
          <CharString index="205">
            61 -74 -111 return
          </CharString>
          <CharString index="206">
            102 callgsubr
            -155 hlineto
            173 814 rlineto
            return
          </CharString>
          <CharString index="207">
            hlineto
            -52 -246 rlineto
            endchar
          </CharString>
          <CharString index="208">
            hlineto
            -74 -348 rlineto
            return
          </CharString>
          <CharString index="209">
            rlineto
            464 hlineto
            return
          </CharString>
          <CharString index="210">
            62 289 rlineto
            return
          </CharString>
          <CharString index="211">
            hmoveto
            424 hlineto
            return
          </CharString>
          <CharString index="212">
            60 280 rlineto
            -1186 hlineto
            -60 -280 rlineto
            return
          </CharString>
          <CharString index="213">
            rmoveto
            800 450 -609 450 rlineto
            endchar
          </CharString>
          <CharString index="214">
            rlineto
            434 hlineto
            return
          </CharString>
          <CharString index="215">
            -68 1319 1105 rmoveto
            -375 hlineto
            -5 return
          </CharString>
          <CharString index="216" raw="1">
            fc31057d 060b  
          </CharString>
          <CharString index="217">
            rlineto
            -226 hlineto
            return
          </CharString>
          <CharString index="218">
            rlineto
            -387 hlineto
            -37 -177 -31 callsubr
            return
          </CharString>
          <CharString index="219">
            -73 -342 rlineto
            1186 hlineto
            endchar
          </CharString>
          <CharString index="220">
            rlineto
            -400 hlineto
            return
          </CharString>
          <CharString index="221">
            rlineto
            -436 hlineto
            return
          </CharString>
        <CharString name=".notdef">
          741 -95 -494 rmoveto
          1847 76 callgsubr
          1848 88 callsubr
          27 129 68 callgsubr
          1848 hlineto
          27 128 rlineto
          -1847 hlineto
          71 335 rmoveto
          1847 88 callsubr
          28 128 rlineto
          -1848 hlineto
          endchar
        </CharString>
        <CharString name=".null">
          endchar
        </CharString>
        <CharString name="A">
          187 902 -101 callgsubr
          endchar
        </CharString>
        <CharString name="AE">
          779 1119 -41 callsubr
          endchar
        </CharString>
        <CharString name="AEacute">
          779 1119 -41 callsubr
          750 1269 rmoveto
          50 callsubr
        </CharString>
        <CharString name="AEmacron">
          779 1119 -41 callsubr
          1010 1500 -81 callsubr
          endchar
        </CharString>
        <CharString name="Aacute">
          187 902 -101 callgsubr
          222 1268 rmoveto
          50 callsubr
        </CharString>
        <CharString name="Abreve">
          187 902 -101 callgsubr
          -269 1583 -83 callgsubr
          endchar
        </CharString>
        <CharString name="Abreveacute">
          187 902 -101 callgsubr
          -26 1638 -28 callsubr
          -180 -670 -44 callsubr
        </CharString>
        <CharString name="Abrevedotbelow">
          187 902 -101 callgsubr
          -269 1583 -83 callgsubr
          -320 -2352 -102 callgsubr
        </CharString>
        <CharString name="Abrevegrave">
          187 902 -101 callgsubr
          285 1638 21 callgsubr
        </CharString>
        <CharString name="Abrevehookabove">
          187 902 -101 callgsubr
          -64 1774 rmoveto
          8 19 36 6 37 hhcurveto
          51 33 -21 -35 -32 -31 -31 -49 -17 hvcurveto
          73 -115 rlineto
          121 36 98 98 108 vvcurveto
          97 -91 68 -129 -40 -46 -6 -12 -47 vhcurveto
          85 -677 -44 callsubr
        </CharString>
        <CharString name="Abrevetilde">
          187 902 -101 callgsubr
          292 1626 -87 callgsubr
          -236 -377 -44 callsubr
        </CharString>
        <CharString name="Acaron">
          187 902 -101 callgsubr
          -103 1249 -83 callsubr
        </CharString>
        <CharString name="Acircumflex">
          187 902 -101 callgsubr
          283 1585 -93 callsubr
        </CharString>
        <CharString name="Acircumflexacute">
          5 callsubr
          -79 83 -28 callsubr
          endchar
        </CharString>
        <CharString name="Acircumflexdotbelow">
          187 902 -101 callgsubr
          283 1585 -95 callsubr
          -825 -2018 -102 callgsubr
        </CharString>
        <CharString name="Acircumflexgrave">
          5 callsubr
          222 83 -15 callsubr
          endchar
        </CharString>
        <CharString name="Acircumflexhookabove">
          5 callsubr
          -2 174 rmoveto
          13 35 40 7 38 hhcurveto
          57 37 -25 -39 -48 -36 -44 -57 -22 hvcurveto
          78 -135 rlineto
          141 57 108 116 138 vvcurveto
          110 -92 68 -142 -59 -67 -11 -18 -44 vhcurveto
          endchar
        </CharString>
        <CharString name="Acircumflextilde">
          187 902 -101 callgsubr
          292 1626 -87 callgsubr
          -339 -71 -70 callgsubr
          endchar
        </CharString>
        <CharString name="Acyrillic">
          197 907 -101 callgsubr
          endchar
        </CharString>
        <CharString name="Adblgrave">
          187 902 -101 callgsubr
          -334 1268 -60 callsubr
          676 -321 -60 callsubr
          endchar
        </CharString>
        <CharString name="Adieresis">
          187 902 -101 callgsubr
          -120 1272 -107 callsubr
          endchar
        </CharString>
        <CharString name="Adieresismacron">
          187 902 -101 callgsubr
          -136 1549 rmoveto
          -48 callgsubr
          689 284 -81 callsubr
          -207 -104 rmoveto
          41 callgsubr
        </CharString>
        <CharString name="Adotaccent">
          187 902 -101 callgsubr
          105 1316 -102 callgsubr
        </CharString>
        <CharString name="Adotbelow">
          187 902 -101 callgsubr
          -359 -769 -102 callgsubr
        </CharString>
        <CharString name="Adotmacron">
          187 902 -101 callgsubr
          86 1249 17 callsubr
        </CharString>
        <CharString name="Agrave">
          187 902 -101 callgsubr
          -84 1268 -60 callsubr
          endchar
        </CharString>
        <CharString name="Ahookabove">
          187 902 -101 callgsubr
          -100 1520 -68 callsubr
        </CharString>
        <CharString name="Ainvertedbreve">
          187 902 -101 callgsubr
          447 1249 -59 callgsubr
        </CharString>
        <CharString name="Alphagreek">
          187 902 -101 callgsubr
          endchar
        </CharString>
        <CharString name="Alphatonosgreek">
          187 902 -101 callgsubr
          -933 815 -30 callsubr
          endchar
        </CharString>
        <CharString name="Amacron">
          187 902 -101 callgsubr
          482 1499 -81 callsubr
          endchar
        </CharString>
        <CharString name="Aogonek">
          187 1194 -275 rmoveto
          -4 -11 -32 -5 -31 hhcurveto
          -70 -37 28 46 88 120 82 233 54 hvcurveto
          26 6 -146 1423 rlineto
          -532 hlineto
          -794 -26 callgsubr
          447 hlineto
          141 287 rlineto
          438 hlineto
          13 -292 rlineto
          -129 -53 -114 -118 -110 44 callgsubr
          -251 1557 rmoveto
          9 hlineto
          22 -503 rlineto
          -278 hlineto
          endchar
        </CharString>
        <CharString name="Aring">
          187 902 -101 callgsubr
          128 1287 -89 callgsubr
        </CharString>
        <CharString name="Aringacute">
          187 902 -101 callgsubr
          94 1231 19 callgsubr
        </CharString>
        <CharString name="Aringbelow">
          187 902 -101 callgsubr
          -343 -832 -89 callgsubr
        </CharString>
        <CharString name="Atilde">
          187 902 -101 callgsubr
          233 1259 -105 callsubr
          endchar
        </CharString>
        <CharString name="B">
          80 808 -79 callsubr
          endchar
        </CharString>
        <CharString name="Bdotaccent">
          80 808 -79 callsubr
          193 1312 -102 callgsubr
        </CharString>
        <CharString name="Bdotbelow">
          80 808 -79 callsubr
          -215 -773 -102 callgsubr
        </CharString>
        <CharString name="Becyrillic">
          68 652 hmoveto
          414 260 208 331 252 -190 143 -334 hvcurveto
          -156 hlineto
          37 173 rlineto
          648 hlineto
          72 336 rlineto
          -1074 hlineto
          -306 -26 callgsubr
          491 314 rmoveto
          68 320 rlineto
          149 hlineto
          114 59 -49 -80 -114 -99 -77 -148 hvcurveto
          endchar
        </CharString>
        <CharString name="Betagreek">
          80 808 -79 callsubr
          endchar
        </CharString>
        <CharString name="Blinebelow">
          80 808 -79 callsubr
          178 -510 -81 callsubr
          endchar
        </CharString>
        <CharString name="C">
          233 1153 862 -94 callgsubr
          endchar
        </CharString>
        <CharString name="Cacute">
          233 1153 862 -94 callgsubr
          -3 693 rmoveto
          50 callsubr
        </CharString>
        <CharString name="Ccaron">
          233 1153 862 -94 callgsubr
          -328 674 -83 callsubr
        </CharString>
        <CharString name="Ccedilla">
          233 1564 862 rmoveto
          3 16 2 23 25 vvcurveto
          315 -252 227 -349 -514 -329 -347 -541 -327 201 -225 318 -45 vhcurveto
          -58 -69 -29 -125 rlineto
          58 hlineto
          83 28 -10 -29 -31 -38 -16 -74 -41 -44 5 7 -25 hvcurveto
          -35 -161 rlineto
          -9 24 54 -6 60 hhcurveto
          189 139 100 136 84 -48 52 -90 13 hvcurveto
          44 54 352 29 260 223 47 322 rlinecurve
          -411 hlineto
          -143 -42 -113 -89 -140 hhcurveto
          -144 -88 109 177 305 150 216 212 130 100 -98 -127 -30 0 -4 -1 -6 hvcurveto
          endchar
        </CharString>
        <CharString name="Ccedillaacute">
          233 1492 1876 rmoveto
          -364 hlineto
          -300 -321 rlineto
          322 hlineto
          414 -693 rmoveto
          3 16 2 23 25 vvcurveto
          315 -252 227 -349 -514 -329 -347 -541 -327 201 -225 318 -45 vhcurveto
          -58 -69 -29 -125 rlineto
          58 hlineto
          83 28 -10 -29 -31 -38 -16 -74 -41 -44 5 7 -25 hvcurveto
          -35 -161 rlineto
          -9 24 54 -6 60 hhcurveto
          189 139 100 136 84 -48 52 -90 13 hvcurveto
          44 54 352 29 260 223 47 322 rlinecurve
          -411 hlineto
          -143 -42 -113 -89 -140 hhcurveto
          -144 -88 109 177 305 150 216 212 130 100 -98 -127 -30 0 -4 -1 -6 hvcurveto
          endchar
        </CharString>
        <CharString name="Ccircumflex">
          233 1153 862 -94 callgsubr
          58 1010 -93 callsubr
        </CharString>
        <CharString name="Cdotaccent">
          233 1153 862 -94 callgsubr
          -120 741 -102 callgsubr
        </CharString>
        <CharString name="Checyrillic">
          13 callgsubr
          endchar
        </CharString>
        <CharString name="Chigreek">
          169 -64 34 callgsubr
        </CharString>
        <CharString name="D">
          185 325 -41 callgsubr
          30 callsubr
        </CharString>
        <CharString name="Dcaron">
          185 325 -41 callgsubr
          -88 callgsubr
          172 1200 -83 callsubr
        </CharString>
        <CharString name="Dcircumflexbelow">
          185 325 -41 callgsubr
          -88 callgsubr
          197 -501 -93 callsubr
        </CharString>
        <CharString name="Dcommaaccent">
          185 325 -41 callgsubr
          -88 callgsubr
          -93 -811 -40 callsubr
        </CharString>
        <CharString name="Dcroat">
          185 518 336 rmoveto
          47 221 rlineto
          188 hlineto
          72 336 rlineto
          -189 hlineto
          45 215 rlineto
          143 hlineto
          150 88 -109 -161 -314 -160 -188 -226 hvcurveto
          -351 1107 rmoveto
          -117 -550 rlineto
          -108 hlineto
          -72 -336 rlineto
          109 hlineto
          -119 -557 rlineto
          719 hlineto
          457 304 373 519 348 -239 203 -334 hvcurveto
          endchar
        </CharString>
        <CharString name="Ddotaccent">
          185 325 -41 callgsubr
          -88 callgsubr
          380 1267 -102 callgsubr
        </CharString>
        <CharString name="Ddotbelow">
          185 325 -41 callgsubr
          -88 callgsubr
          10 -818 -102 callgsubr
        </CharString>
        <CharString name="Decyrillic">
          322 671 679 rmoveto
          121 429 rlineto
          359 hlineto
          -164 -771 rlineto
          -469 hlineto
          4 22 62 61 45 108 42 151 rlinecurve
          -374 -679 rmoveto
          93 callgsubr
          -180 hlineto
          235 1106 rlineto
          -1154 hlineto
          -199 -723 -56 -202 -40 -98 -113 -83 rlinecurve
          -95 hlineto
          -133 -622 rlineto
          380 hlineto
          endchar
        </CharString>
        <CharString name="Deltagreek">
          206 1353 hmoveto
          46 215 -143 1228 rlineto
          -532 hlineto
          -692 -1226 -46 -217 rlineto
          921 1121 rmoveto
          9 hlineto
          51 -777 -1 -8 rlineto
          -456 hlineto
          1 8 rlineto
          endchar
        </CharString>
        <CharString name="Djecyrillic">
          489 356 104 callsubr
          93 439 rlineto
          62 48 88 53 101 hhcurveto
          115 74 -59 -96 -117 -98 -80 -136 -88 -32 9 0 hvcurveto
          -66 -312 rlineto
          0 56 -17 130 421 255 257 334 239 -165 194 -305 -130 -97 -42 -55 -74 vhcurveto
          -18 hlineto
          63 298 rlineto
          381 hlineto
          72 336 rlineto
          -1186 hlineto
          -72 -336 rlineto
          381 hlineto
          endchar
        </CharString>
        <CharString name="Dlinebelow">
          185 325 -41 callgsubr
          -88 callgsubr
          403 -555 -81 callsubr
          endchar
        </CharString>
        <CharString name="Dzecyrillic">
          87 67 425 rmoveto
          -100 callgsubr
          endchar
        </CharString>
        <CharString name="Dzhecyrillic">
          265 1369 hmoveto
          38 callsubr
          -235 -1107 rlineto
          -498 hlineto
          235 1107 -90 callgsubr
          522 hlineto
          -61 -285 rlineto
          358 hlineto
          61 285 rlineto
          endchar
        </CharString>
        <CharString name="E">
          -99 1107 336 -101 callsubr
          endchar
        </CharString>
        <CharString name="Eacute">
          -99 1107 336 -101 callsubr
          -41 1555 rmoveto
          50 callsubr
        </CharString>
        <CharString name="Ebreve">
          -99 1107 336 -101 callsubr
          -532 1870 -83 callgsubr
          endchar
        </CharString>
        <CharString name="Ecaron">
          -99 1107 336 -101 callsubr
          -366 1536 -83 callsubr
        </CharString>
        <CharString name="Ecedilla">
          -99 1270 1107 rmoveto
          72 336 rlineto
          -1017 hlineto
          -307 -1443 rlineto
          417 hlineto
          -72 -86 -29 -125 rlineto
          58 hlineto
          83 28 -10 -29 -31 -38 -16 -74 -41 -44 5 7 -25 hvcurveto
          -35 -161 rlineto
          -9 24 54 -6 60 hhcurveto
          189 139 100 136 84 -48 52 -90 13 hvcurveto
          62 76 rlineto
          400 hlineto
          71 336 rlineto
          -594 hlineto
          50 233 rlineto
          556 hlineto
          65 304 rlineto
          -556 hlineto
          49 234 rlineto
          endchar
        </CharString>
        <CharString name="Ecedillabreve">
          -99 1052 1870 rmoveto
          -86 -22 -67 -62 -100 hhcurveto
          -88 -44 47 70 10 1 10 2 11 hvcurveto
          -230 hlineto
          -4 -21 -2 -21 -20 vvcurveto
          -148 107 -124 224 252 166 152 182 47 vhcurveto
          -24 -763 rmoveto
          72 336 rlineto
          -1017 hlineto
          -307 -1443 rlineto
          417 hlineto
          -72 -86 -29 -125 rlineto
          58 hlineto
          83 28 -10 -29 -31 -38 -16 -74 -41 -44 5 7 -25 hvcurveto
          -35 -161 rlineto
          -9 24 54 -6 60 hhcurveto
          189 139 100 136 84 -48 52 -90 13 hvcurveto
          62 76 rlineto
          400 hlineto
          71 336 rlineto
          -594 hlineto
          50 233 rlineto
          556 hlineto
          65 304 rlineto
          -556 hlineto
          49 234 rlineto
          endchar
        </CharString>
        <CharString name="Ecircumflex">
          -99 1107 336 -101 callsubr
          20 1872 -93 callsubr
        </CharString>
        <CharString name="Ecircumflexacute">
          -99 1107 336 -101 callsubr
          -310 60 callsubr
          -79 83 -28 callsubr
          endchar
        </CharString>
        <CharString name="Ecircumflexbelow">
          -99 1107 336 -101 callsubr
          -367 -165 -93 callsubr
        </CharString>
        <CharString name="Ecircumflexdotbelow">
          -99 1107 336 -101 callsubr
          20 1872 -95 callsubr
          -757 -2018 -102 callgsubr
        </CharString>
        <CharString name="Ecircumflexgrave">
          -99 1107 336 -101 callsubr
          -310 60 callsubr
          222 83 -15 callsubr
          endchar
        </CharString>
        <CharString name="Ecircumflexhookabove">
          -99 1107 336 -101 callsubr
          -310 60 callsubr
          -2 174 rmoveto
          13 35 40 7 38 hhcurveto
          57 37 -25 -39 -48 -36 -44 -57 -22 hvcurveto
          78 -135 rlineto
          141 57 108 116 138 vvcurveto
          110 -92 68 -142 -59 -67 -11 -18 -44 vhcurveto
          endchar
        </CharString>
        <CharString name="Ecircumflextilde">
          -99 1107 336 -101 callsubr
          29 1913 -87 callgsubr
          -339 -71 -70 callgsubr
          endchar
        </CharString>
        <CharString name="Ecyrillic">
          -2 callsubr
          endchar
        </CharString>
        <CharString name="Edblgrave">
          -99 1107 336 -101 callsubr
          -597 1555 -60 callsubr
          676 -321 -60 callsubr
          endchar
        </CharString>
        <CharString name="Edieresis">
          -99 1107 336 -101 callsubr
          -383 1559 -107 callsubr
          endchar
        </CharString>
        <CharString name="Edotaccent">
          -99 1107 336 -101 callsubr
          -158 1603 -102 callgsubr
        </CharString>
        <CharString name="Edotbelow">
          -99 1107 336 -101 callsubr
          -554 -56 callgsubr
        </CharString>
        <CharString name="Efcyrillic">
          656 1091 -40 rmoveto
          33 157 rlineto
          515 18 320 259 398 vvcurveto
          316 -222 205 -355 13 vhcurveto
          33 157 rlineto
          -420 hlineto
          -34 -157 rlineto
          -514 -18 -319 -259 -402 vvcurveto
          -312 221 -205 355 -13 vhcurveto
          -33 -157 rlineto
          -107 704 rmoveto
          190 138 135 195 13 vhcurveto
          -120 -561 rlineto
          -138 11 -75 81 131 vvcurveto
          959 104 rmoveto
          -179 -137 -135 -197 -13 vhcurveto
          120 560 rlineto
          139 -10 75 -82 -141 vvcurveto
          endchar
        </CharString>
        <CharString name="Egrave">
          -99 1107 336 -101 callsubr
          -347 1555 -60 callsubr
          endchar
        </CharString>
        <CharString name="Ehookabove">
          -99 1107 336 -101 callsubr
          -363 1807 -68 callsubr
        </CharString>
        <CharString name="Einvertedbreve">
          -99 1107 336 -101 callsubr
          184 1536 -59 callgsubr
        </CharString>
        <CharString name="Elcyrillic">
          229 1333 hmoveto
          -47 callgsubr
        </CharString>
        <CharString name="Emacron">
          -99 1107 336 -101 callsubr
          219 1786 -81 callsubr
          endchar
        </CharString>
        <CharString name="Emacronacute">
          -99 1107 336 -101 callsubr
          180 1606 18 callgsubr
          279 319 -28 callsubr
          endchar
        </CharString>
        <CharString name="Emacrongrave">
          -99 1107 336 -101 callsubr
          180 1606 18 callgsubr
          590 319 -15 callsubr
          endchar
        </CharString>
        <CharString name="Emcyrillic">
          553 398 22 callgsubr
        </CharString>
        <CharString name="Encyrillic">
          275 1379 -2 callgsubr
        </CharString>
        <CharString name="Eogonek">
          -99 18 hmoveto
          660 hlineto
          -1 -4 rlineto
          -132 -54 -99 -121 -107 vvcurveto
          -124 105 -84 155 73 61 9 17 43 vhcurveto
          41 193 rlineto
          -5 -13 -35 -4 -26 hhcurveto
          -68 -39 27 47 79 101 83 140 35 hvcurveto
          52 13 71 336 rlineto
          -594 hlineto
          50 233 rlineto
          556 hlineto
          65 304 rlineto
          -556 hlineto
          49 234 rlineto
          593 hlineto
          72 336 rlineto
          -1017 hlineto
          endchar
        </CharString>
        <CharString name="Epsilongreek">
          -99 1107 336 -101 callsubr
          endchar
        </CharString>
        <CharString name="Epsilontonosgreek">
          393 144 15 callgsubr
          1299 -1107 -101 callsubr
          endchar
        </CharString>
        <CharString name="Ercyrillic">
          60 330 -41 callgsubr
          -64 callgsubr
          endchar
        </CharString>
        <CharString name="Ereversedcyrillic">
          -75 callgsubr
          endchar
        </CharString>
        <CharString name="Escyrillic">
          243 1158 862 -94 callgsubr
          endchar
        </CharString>
        <CharString name="Etagreek">
          265 1374 -2 callgsubr
        </CharString>
        <CharString name="Etatonosgreek">
          757 144 15 callgsubr
          1566 -1443 -26 callsubr
        </CharString>
        <CharString name="Eth">
          185 518 336 rmoveto
          47 221 rlineto
          188 hlineto
          72 336 rlineto
          -189 hlineto
          45 215 rlineto
          143 hlineto
          150 88 -109 -161 -314 -160 -188 -226 hvcurveto
          -351 1107 rmoveto
          -117 -550 rlineto
          -108 hlineto
          -72 -336 rlineto
          109 hlineto
          -119 -557 rlineto
          719 hlineto
          457 304 373 519 348 -239 203 -334 hvcurveto
          endchar
        </CharString>
        <CharString name="Etilde">
          -99 1107 336 -101 callsubr
          -30 1546 -105 callsubr
          endchar
        </CharString>
        <CharString name="Etildebelow">
          -99 1107 336 -101 callsubr
          -411 -465 -105 callsubr
          endchar
        </CharString>
        <CharString name="Euro">
          106 1519 1409 rmoveto
          23 -48 -150 41 -180 hhcurveto
          -396 -292 -218 -320 -115 hvcurveto
          -139 hlineto
          -39 -180 rlineto
          134 hlineto
          -4 -34 -3 -35 -1 -35 rrcurveto
          -146 hlineto
          -40 -180 rlineto
          199 hlineto
          -317 66 284 -184 428 hhcurveto
          36 91 8 6 25 hvcurveto
          74 339 rlineto
          -10 -27 -82 -5 -39 hhcurveto
          -220 -129 54 109 -56 hvcurveto
          486 hlineto
          40 180 rlineto
          -559 hlineto
          1 36 4 35 7 33 rrcurveto
          568 hlineto
          41 180 rlineto
          -538 hlineto
          116 75 124 75 166 hhcurveto
          137 104 -33 -18 42 hvcurveto
          endchar
        </CharString>
        <CharString name="F">
          -138 460 14 callsubr
          endchar
        </CharString>
        <CharString name="Fdotaccent">
          -138 460 14 callsubr
          885 1603 -102 callgsubr
        </CharString>
        <CharString name="G">
          -89 callsubr
          endchar
        </CharString>
        <CharString name="Gacute">
          -89 callsubr
          -398 919 rmoveto
          50 callsubr
        </CharString>
        <CharString name="Gammagreek">
          -158 460 hmoveto
          110 callgsubr
          551 hlineto
          72 336 rlineto
          -993 -94 callsubr
          endchar
        </CharString>
        <CharString name="Gbreve">
          -89 callsubr
          -889 1234 -83 callgsubr
          endchar
        </CharString>
        <CharString name="Gcaron">
          -89 callsubr
          -723 900 -83 callsubr
        </CharString>
        <CharString name="Gcircumflex">
          -89 callsubr
          -337 1236 -93 callsubr
        </CharString>
        <CharString name="Gcommaaccent">
          -89 callsubr
          -876 -1111 -40 callsubr
        </CharString>
        <CharString name="Gdotaccent">
          -89 callsubr
          -515 967 -102 callgsubr
        </CharString>
        <CharString name="Gecyrillic">
          71 callgsubr
          endchar
        </CharString>
        <CharString name="Geupturncyrillic">
          -125 682 1107 rmoveto
          580 hlineto
          132 621 113 callsubr
          -60 -285 rlineto
          -604 72 callsubr
          endchar
        </CharString>
        <CharString name="Gjecyrillic">
          71 callgsubr
          975 1555 rmoveto
          50 callsubr
        </CharString>
        <CharString name="Gmacron">
          -89 callsubr
          -138 1150 -81 callsubr
          endchar
        </CharString>
        <CharString name="H">
          265 1374 -2 callgsubr
        </CharString>
        <CharString name="Hardsigncyrillic">
          328 918 hmoveto
          414 260 222 352 291 -190 164 -334 hvcurveto
          -136 hlineto
          88 414 rlineto
          -764 hlineto
          -71 -335 rlineto
          340 hlineto
          -236 -1108 rlineto
          691 709 rmoveto
          121 69 -61 -108 -135 -99 -91 -148 hvcurveto
          -143 hlineto
          84 395 rlineto
          endchar
        </CharString>
        <CharString name="Hbar">
          265 1129 892 rmoveto
          -488 hlineto
          31 146 rlineto
          488 hlineto
          600 268 rmoveto
          -108 hlineto
          29 137 rlineto
          -434 hlineto
          -29 -137 rlineto
          -488 hlineto
          29 137 rlineto
          -434 hlineto
          -29 -137 rlineto
          -109 hlineto
          -57 -268 rlineto
          109 hlineto
          -221 -1038 rlineto
          434 hlineto
          120 562 rlineto
          488 hlineto
          -120 -562 rlineto
          434 hlineto
          221 1038 rlineto
          108 hlineto
          endchar
        </CharString>
        <CharString name="Hbrevebelow">
          265 1374 hmoveto
          -92 callgsubr
          -670 -142 -83 callgsubr
          endchar
        </CharString>
        <CharString name="Hcaron">
          265 1374 hmoveto
          -92 callgsubr
          -74 1536 -83 callsubr
        </CharString>
        <CharString name="Hcedilla">
          265 1247 1443 rmoveto
          -118 -551 rlineto
          -488 hlineto
          118 551 rlineto
          -434 hlineto
          -307 -1443 rlineto
          233 hlineto
          -72 -86 -29 -125 rlineto
          58 hlineto
          83 28 -10 -29 -31 -38 -16 -74 -41 -44 5 7 -25 hvcurveto
          -35 -161 rlineto
          -9 24 54 -6 60 hhcurveto
          189 139 100 136 84 -48 52 -90 13 hvcurveto
          62 76 120 562 rlineto
          488 hlineto
          -120 -562 rlineto
          434 hlineto
          307 1443 rlineto
          endchar
        </CharString>
        <CharString name="Hcircumflex">
          265 1374 hmoveto
          -92 callgsubr
          312 1872 -93 callsubr
        </CharString>
        <CharString name="Hdieresis">
          265 1374 hmoveto
          -92 callgsubr
          -91 1559 -107 callsubr
          endchar
        </CharString>
        <CharString name="Hdotaccent">
          265 1374 hmoveto
          -92 callgsubr
          134 1603 -102 callgsubr
        </CharString>
        <CharString name="Hdotbelow">
          265 1374 hmoveto
          -92 callgsubr
          -310 -56 callgsubr
        </CharString>
        <CharString name="I">
          -667 442 83 callgsubr
        </CharString>
        <CharString name="I.1">
          -223 1168 1122 rmoveto
          69 321 rlineto
          -267 hlineto
          -424 hlineto
          -265 hlineto
          -69 -321 rlineto
          266 hlineto
          -171 -801 rlineto
          -265 hlineto
          -68 -321 rlineto
          265 hlineto
          424 hlineto
          267 hlineto
          68 321 rlineto
          -267 hlineto
          171 801 rlineto
          endchar
        </CharString>
        <CharString name="IAcyrillic">
          -59 callsubr
          endchar
        </CharString>
        <CharString name="IJ">
          593 442 hmoveto
          -91 callsubr
          660 434 -61 callgsubr
          endchar
        </CharString>
        <CharString name="IJacute">
          593 442 hmoveto
          -91 callsubr
          707 1555 -85 callsubr
          275 -1121 -61 callgsubr
          1306 1121 rmoveto
          50 callsubr
        </CharString>
        <CharString name="IUcyrillic">
          893 1415 313 rmoveto
          -140 -91 119 183 284 161 231 188 141 92 -117 -184 -286 -162 -230 -189 hvcurveto
          -778 582 rmoveto
          117 548 rlineto
          -424 hlineto
          -307 -1443 rlineto
          423 hlineto
          119 559 rlineto
          200 hlineto
          -335 12 231 -249 394 hhcurveto
          437 357 348 531 349 -236 265 -417 -346 -286 -219 -354 -105 hvcurveto
          endchar
        </CharString>
        <CharString name="Iacute">
          -667 442 hmoveto
          -91 callsubr
          707 1555 rmoveto
          50 callsubr
        </CharString>
        <CharString name="Iacute.1">
          -223 1288 1876 rmoveto
          -364 hlineto
          -300 -321 rlineto
          322 hlineto
          -400 -112 rmoveto
          -265 hlineto
          -69 -321 rlineto
          266 hlineto
          -171 -801 rlineto
          -265 hlineto
          -68 -321 rlineto
          265 hlineto
          424 hlineto
          267 hlineto
          68 321 rlineto
          -267 hlineto
          171 801 rlineto
          266 hlineto
          69 321 rlineto
          -267 hlineto
          endchar
        </CharString>
        <CharString name="Ibreve">
          -667 442 hmoveto
          -91 callsubr
          216 1870 -83 callgsubr
          endchar
        </CharString>
        <CharString name="Ibreve.1">
          -223 1003 1870 rmoveto
          -86 -22 -67 -62 -100 hhcurveto
          -88 -44 47 70 10 1 10 2 11 hvcurveto
          -230 hlineto
          -4 -21 -2 -21 -20 vvcurveto
          -148 107 -124 224 252 166 152 182 47 vhcurveto
          -699 -427 rmoveto
          -265 hlineto
          -69 -321 rlineto
          266 hlineto
          -171 -801 rlineto
          -265 hlineto
          -68 -321 rlineto
          265 hlineto
          424 hlineto
          267 hlineto
          68 321 rlineto
          -267 hlineto
          171 801 rlineto
          266 hlineto
          69 321 rlineto
          -267 hlineto
          endchar
        </CharString>
        <CharString name="Icaron">
          -667 442 hmoveto
          -91 callsubr
          382 1536 -83 callsubr
        </CharString>
        <CharString name="Icaron.1">
          -223 935 1536 rmoveto
          327 336 rlineto
          -276 hlineto
          -173 -192 rlineto
          -8 hlineto
          -91 192 rlineto
          -276 hlineto
          183 -336 rlineto
          -75 -93 rmoveto
          -265 hlineto
          -69 -321 rlineto
          266 hlineto
          -171 -801 rlineto
          -265 hlineto
          -68 -321 rlineto
          265 hlineto
          424 hlineto
          267 hlineto
          68 321 rlineto
          -267 hlineto
          171 801 rlineto
          266 hlineto
          69 321 rlineto
          -267 hlineto
          endchar
        </CharString>
        <CharString name="Icircumflex">
          -667 442 hmoveto
          -91 callsubr
          768 1872 -93 callsubr
        </CharString>
        <CharString name="Icircumflex.1">
          -223 815 1728 rmoveto
          8 hlineto
          91 -192 rlineto
          276 hlineto
          -183 336 rlineto
          -314 hlineto
          -327 -336 rlineto
          276 hlineto
          526 -414 rmoveto
          69 321 rlineto
          -267 hlineto
          -424 hlineto
          -265 hlineto
          -69 -321 rlineto
          266 hlineto
          -171 -801 rlineto
          -265 hlineto
          -68 -321 rlineto
          265 hlineto
          424 hlineto
          267 hlineto
          68 321 rlineto
          -267 hlineto
          171 801 rlineto
          endchar
        </CharString>
        <CharString name="Icyrillic">
          78 callsubr
        </CharString>
        <CharString name="Icyrillic.1">
          -203 1178 1122 rmoveto
          69 321 rlineto
          -267 hlineto
          -424 hlineto
          -265 hlineto
          -69 -321 rlineto
          266 hlineto
          -171 -801 rlineto
          -265 hlineto
          -68 -321 rlineto
          265 hlineto
          424 hlineto
          267 hlineto
          68 321 rlineto
          -267 hlineto
          171 801 rlineto
          endchar
        </CharString>
        <CharString name="Idblgrave">
          -667 442 hmoveto
          -91 callsubr
          151 1555 -60 callsubr
          676 -321 -60 callsubr
          endchar
        </CharString>
        <CharString name="Idblgrave.1">
          -223 1150 1555 rmoveto
          -164 321 rlineto
          -332 hlineto
          206 -321 rlineto
          -180 0 rmoveto
          -164 321 rlineto
          -332 hlineto
          206 -321 rlineto
          778 -433 rmoveto
          69 321 rlineto
          -267 hlineto
          -424 hlineto
          -265 hlineto
          -69 -321 rlineto
          266 hlineto
          -171 -801 rlineto
          -265 hlineto
          -68 -321 rlineto
          265 hlineto
          424 hlineto
          267 hlineto
          68 321 rlineto
          -267 hlineto
          171 801 rlineto
          endchar
        </CharString>
        <CharString name="Idieresis">
          18 callsubr
        </CharString>
        <CharString name="Idieresis.1">
          -223 1022 1559 rmoveto
          86 63 63 78 78 -63 63 -86 -86 -63 -63 -78 -78 63 -63 86 hvcurveto
          -418 0 rmoveto
          86 63 63 78 78 -63 63 -86 -86 -63 -63 -78 -78 63 -63 86 hvcurveto
          564 -437 rmoveto
          69 321 rlineto
          -267 hlineto
          -424 hlineto
          -265 hlineto
          -69 -321 rlineto
          266 hlineto
          -171 -801 rlineto
          -265 hlineto
          -68 -321 rlineto
          265 hlineto
          424 hlineto
          267 hlineto
          68 321 rlineto
          -267 hlineto
          171 801 rlineto
          endchar
        </CharString>
        <CharString name="Idieresisacute">
          -667 442 hmoveto
          -91 callsubr
          459 1925 -28 callsubr
          -356 -647 -107 callsubr
          endchar
        </CharString>
        <CharString name="Idieresisacute.1">
          -223 1298 2206 rmoveto
          -338 hlineto
          -262 -281 rlineto
          302 hlineto
          -127 -225 rmoveto
          -78 63 -63 86 86 63 63 78 78 -63 63 -86 -86 -63 -63 -78 vhcurveto
          -269 -141 rmoveto
          86 63 63 78 78 -63 63 -86 -86 -63 -63 -78 -78 63 -63 86 hvcurveto
          -58 -116 rmoveto
          -265 hlineto
          -69 -321 rlineto
          266 hlineto
          -171 -801 rlineto
          -265 hlineto
          -68 -321 rlineto
          265 hlineto
          424 hlineto
          267 hlineto
          68 321 rlineto
          -267 hlineto
          171 801 rlineto
          266 hlineto
          69 321 rlineto
          -267 hlineto
          endchar
        </CharString>
        <CharString name="Idotaccent">
          -667 442 hmoveto
          -91 callsubr
          590 1603 -102 callgsubr
        </CharString>
        <CharString name="Idotaccent.1">
          -223 829 1603 rmoveto
          100 77 78 95 95 -77 78 -100 -100 -77 -78 -95 -95 77 -78 100 hvcurveto
          339 -481 rmoveto
          69 321 rlineto
          -267 hlineto
          -424 hlineto
          -265 hlineto
          -69 -321 rlineto
          266 hlineto
          -171 -801 rlineto
          -265 hlineto
          -68 -321 rlineto
          265 hlineto
          424 hlineto
          267 hlineto
          68 321 rlineto
          -267 hlineto
          171 801 rlineto
          endchar
        </CharString>
        <CharString name="Idotbelow">
          -667 442 hmoveto
          -91 callsubr
          147 -56 callgsubr
        </CharString>
        <CharString name="Idotbelow.1">
          -223 387 -136 rmoveto
          -100 -77 -78 -95 -95 77 -78 100 100 77 78 95 95 -77 78 -100 hvcurveto
          781 1258 rmoveto
          69 321 rlineto
          -267 hlineto
          -424 hlineto
          -265 hlineto
          -69 -321 rlineto
          266 hlineto
          -171 -801 rlineto
          -265 hlineto
          -68 -321 rlineto
          265 hlineto
          424 hlineto
          267 hlineto
          68 321 rlineto
          -267 hlineto
          171 801 rlineto
          endchar
        </CharString>
        <CharString name="Iecyrillic">
          -89 1112 336 -101 callsubr
          endchar
        </CharString>
        <CharString name="Igrave">
          -667 442 hmoveto
          -91 callsubr
          401 1555 -60 callsubr
          endchar
        </CharString>
        <CharString name="Igrave.1">
          -223 930 1555 rmoveto
          -164 321 rlineto
          -332 hlineto
          206 -321 rlineto
          528 -433 rmoveto
          69 321 rlineto
          -267 hlineto
          -424 hlineto
          -265 hlineto
          -69 -321 rlineto
          266 hlineto
          -171 -801 rlineto
          -265 hlineto
          -68 -321 rlineto
          265 hlineto
          424 hlineto
          267 hlineto
          68 321 rlineto
          -267 hlineto
          171 801 rlineto
          endchar
        </CharString>
        <CharString name="Ihookabove">
          -667 442 hmoveto
          -91 callsubr
          385 1807 -68 callsubr
        </CharString>
        <CharString name="Ihookabove.1">
          -223 785 1500 rmoveto
          164 68 116 135 123 vvcurveto
          106 -93 71 -141 -59 -68 -12 -17 -44 vhcurveto
          -36 -167 rlineto
          10 29 52 8 33 hhcurveto
          59 38 -24 -39 -48 -53 -48 -79 -30 hvcurveto
          465 -514 rmoveto
          69 321 rlineto
          -267 hlineto
          -424 hlineto
          -265 hlineto
          -69 -321 rlineto
          266 hlineto
          -171 -801 rlineto
          -265 hlineto
          -68 -321 rlineto
          265 hlineto
          424 hlineto
          267 hlineto
          68 321 rlineto
          -267 hlineto
          171 801 rlineto
          endchar
        </CharString>
        <CharString name="Iicyrillic">
          285 975 hmoveto
          -57 callgsubr
          endchar
        </CharString>
        <CharString name="Iinvertedbreve">
          -667 442 hmoveto
          -91 callsubr
          932 1536 -59 callgsubr
        </CharString>
        <CharString name="Iinvertedbreve.1">
          -223 1171 1536 rmoveto
          4 21 2 21 20 vvcurveto
          148 -107 124 -224 -252 -166 -152 -182 -47 vhcurveto
          242 hlineto
          86 22 67 62 100 hhcurveto
          88 44 -47 -70 -10 -1 -10 -2 -11 hvcurveto
          227 -414 rmoveto
          69 321 rlineto
          -267 hlineto
          -424 hlineto
          -265 hlineto
          -69 -321 rlineto
          266 hlineto
          -171 -801 rlineto
          -265 hlineto
          -68 -321 rlineto
          265 hlineto
          424 hlineto
          267 hlineto
          68 321 rlineto
          -267 hlineto
          171 801 rlineto
          endchar
        </CharString>
        <CharString name="Iishortcyrillic">
          285 975 hmoveto
          -57 callgsubr
          -430 1059 -73 callsubr
        </CharString>
        <CharString name="Imacron">
          -667 442 hmoveto
          -91 callsubr
          967 1786 -81 callsubr
          endchar
        </CharString>
        <CharString name="Imacron.1">
          -223 1206 1786 rmoveto
          -748 hlineto
          -38 -180 rlineto
          748 hlineto
          0 -484 rmoveto
          69 321 rlineto
          -267 hlineto
          -424 hlineto
          -265 hlineto
          -69 -321 rlineto
          266 hlineto
          -171 -801 rlineto
          -265 hlineto
          -68 -321 rlineto
          265 hlineto
          424 hlineto
          267 hlineto
          68 321 rlineto
          -267 hlineto
          171 801 rlineto
          endchar
        </CharString>
        <CharString name="Iocyrillic">
          -89 1112 336 -101 callsubr
          -383 1559 -107 callsubr
          endchar
        </CharString>
        <CharString name="Iogonek">
          -667 162 -494 rmoveto
          73 61 9 17 43 hvcurveto
          41 193 rlineto
          -5 -13 -34 -4 -27 hhcurveto
          -67 -40 28 48 73 91 88 110 34 hvcurveto
          42 13 38 callsubr
          -307 -1443 65 -4 rlineto
          -114 -85 -67 -103 -92 vvcurveto
          -125 106 -85 154 vhcurveto
          endchar
        </CharString>
        <CharString name="Iogonek.1">
          -223 212 1122 rmoveto
          266 hlineto
          -171 -801 rlineto
          -265 hlineto
          -68 -321 rlineto
          598 hlineto
          -1 -4 rlineto
          -129 -53 -102 -119 -110 44 callgsubr
          52 callgsubr
          88 117 78 124 31 hvcurveto
          52 13 68 321 rlineto
          -267 hlineto
          171 801 rlineto
          266 hlineto
          69 15 callsubr
          endchar
        </CharString>
        <CharString name="Iotadieresisgreek">
          18 callsubr
        </CharString>
        <CharString name="Iotadieresisgreek.1">
          -223 1022 1559 rmoveto
          86 63 63 78 78 -63 63 -86 -86 -63 -63 -78 -78 63 -63 86 hvcurveto
          -418 0 rmoveto
          86 63 63 78 78 -63 63 -86 -86 -63 -63 -78 -78 63 -63 86 hvcurveto
          564 -437 rmoveto
          69 321 rlineto
          -267 hlineto
          -424 hlineto
          -265 hlineto
          -69 -321 rlineto
          266 hlineto
          -171 -801 rlineto
          -265 hlineto
          -68 -321 rlineto
          265 hlineto
          424 hlineto
          267 hlineto
          68 321 rlineto
          -267 hlineto
          171 801 rlineto
          endchar
        </CharString>
        <CharString name="Iotagreek">
          -667 442 83 callgsubr
        </CharString>
        <CharString name="Iotagreek.1">
          -223 1168 1122 rmoveto
          69 321 rlineto
          -267 hlineto
          -424 hlineto
          -265 hlineto
          -69 -321 rlineto
          266 hlineto
          -171 -801 rlineto
          -265 hlineto
          -68 -321 rlineto
          265 hlineto
          424 hlineto
          267 hlineto
          68 321 rlineto
          -267 hlineto
          171 801 rlineto
          endchar
        </CharString>
        <CharString name="Iotatonosgreek">
          -175 144 15 callgsubr
          634 -1443 -69 callgsubr
          endchar
        </CharString>
        <CharString name="Iotatonosgreek.1">
          272 300 1443 rmoveto
          -156 -341 rlineto
          317 hlineto
          231 341 rlineto
          971 -321 rmoveto
          69 321 rlineto
          -267 hlineto
          -424 hlineto
          -265 hlineto
          -69 -321 rlineto
          266 hlineto
          -171 -801 rlineto
          -265 hlineto
          -68 -321 rlineto
          265 hlineto
          424 hlineto
          267 hlineto
          68 321 rlineto
          -267 hlineto
          171 801 rlineto
          endchar
        </CharString>
        <CharString name="Itilde">
          -667 442 hmoveto
          -91 callsubr
          718 1546 -105 callsubr
          endchar
        </CharString>
        <CharString name="Itilde.1">
          -223 1046 1844 rmoveto
          -69 -18 -29 -37 -42 hhcurveto
          -79 -36 119 -146 hhcurveto
          -141 -115 -115 -178 -37 hvcurveto
          205 hlineto
          63 17 31 38 40 hhcurveto
          79 36 -119 146 hhcurveto
          139 116 118 180 39 hvcurveto
          -705 -401 rmoveto
          -265 hlineto
          -69 -321 rlineto
          266 hlineto
          -171 -801 rlineto
          -265 hlineto
          -68 -321 rlineto
          265 hlineto
          424 hlineto
          267 hlineto
          68 321 rlineto
          -267 hlineto
          171 801 rlineto
          266 hlineto
          69 321 rlineto
          -267 hlineto
          endchar
        </CharString>
        <CharString name="Itildebelow">
          -667 442 hmoveto
          -91 callsubr
          290 -465 -105 callsubr
          endchar
        </CharString>
        <CharString name="Itildebelow.1">
          -223 181 -447 rmoveto
          63 17 31 38 40 hhcurveto
          79 36 -119 146 hhcurveto
          139 116 118 180 39 hvcurveto
          -205 hlineto
          -69 -18 -29 -37 -42 hhcurveto
          -79 -36 119 -146 hhcurveto
          -141 -115 -115 -178 -37 hvcurveto
          1192 1569 rmoveto
          69 321 rlineto
          -267 hlineto
          -424 hlineto
          -265 hlineto
          -69 -321 rlineto
          266 hlineto
          -171 -801 rlineto
          -265 hlineto
          -68 -321 rlineto
          265 hlineto
          424 hlineto
          267 hlineto
          68 321 rlineto
          -267 hlineto
          171 801 rlineto
          endchar
        </CharString>
        <CharString name="J">
          -47 38 434 -61 callgsubr
          endchar
        </CharString>
        <CharString name="Jcircumflex">
          -47 38 434 -61 callgsubr
          1367 1438 -93 callsubr
        </CharString>
        <CharString name="Jecyrillic">
          -37 43 434 -61 callgsubr
          endchar
        </CharString>
        <CharString name="K">
          -67 callsubr
          endchar
        </CharString>
        <CharString name="Kacute">
          -67 callsubr
          1120 1555 rmoveto
          50 callsubr
        </CharString>
        <CharString name="Kacyrillic">
          171 1668 1443 rmoveto
          -480 hlineto
          -548 -582 rlineto
          -10 hlineto
          124 582 rlineto
          -424 hlineto
          -307 -1443 rlineto
          424 hlineto
          116 543 rlineto
          13 hlineto
          321 -543 rlineto
          471 hlineto
          -412 690 rlineto
          endchar
        </CharString>
        <CharString name="Kappagreek">
          -67 callsubr
          endchar
        </CharString>
        <CharString name="Kcaron">
          -67 callsubr
          795 1536 -83 callsubr
        </CharString>
        <CharString name="Kcommaaccent">
          -67 callsubr
          471 -475 -40 callsubr
        </CharString>
        <CharString name="Kdotbelow">
          -67 callsubr
          574 -56 callgsubr
        </CharString>
        <CharString name="Kjecyrillic">
          171 1450 1876 rmoveto
          -364 hlineto
          -300 -321 rlineto
          322 hlineto
          560 -112 rmoveto
          -480 hlineto
          -548 -582 rlineto
          -10 hlineto
          124 582 rlineto
          -424 hlineto
          -307 -1443 rlineto
          424 hlineto
          116 543 rlineto
          13 hlineto
          321 -543 rlineto
          471 hlineto
          -412 690 rlineto
          endchar
        </CharString>
        <CharString name="Klinebelow">
          -67 callsubr
          967 -219 -81 callsubr
          endchar
        </CharString>
        <CharString name="L">
          -153 1103 346 75 callsubr
        </CharString>
        <CharString name="Lacute">
          -153 1103 346 -34 callsubr
          -304 1555 rmoveto
          50 callsubr
        </CharString>
        <CharString name="Lambdagreek">
          166 892 1089 rmoveto
          9 hlineto
          29 -1089 107 callsubr
          -128 -37 callgsubr
          -532 hlineto
          -774 -26 callgsubr
          448 hlineto
          endchar
        </CharString>
        <CharString name="Lcaron">
          -153 967 27 callgsubr
          -186 -1097 75 callsubr
        </CharString>
        <CharString name="Lcircumflexbelow">
          -153 1103 346 -34 callsubr
          -367 -165 -93 callsubr
        </CharString>
        <CharString name="Lcommaaccent">
          -153 1103 346 -34 callsubr
          -657 -475 -40 callsubr
        </CharString>
        <CharString name="Ldotbelow">
          39 callsubr
          endchar
        </CharString>
        <CharString name="Ldotbelowmacron">
          39 callsubr
          510 2268 -81 callsubr
          endchar
        </CharString>
        <CharString name="Ljecyrillic">
          948 699 600 rmoveto
          131 507 rlineto
          315 hlineto
          -236 -1107 rlineto
          629 hlineto
          414 260 222 352 291 -190 164 -334 hvcurveto
          -136 hlineto
          88 414 rlineto
          -1114 hlineto
          -206 -810 rlineto
          -163 -41 -68 -117 -118 hhcurveto
          -36 -26 6 3 -16 hvcurveto
          -78 -362 rlineto
          -6 20 53 -10 71 hhcurveto
          368 146 215 401 104 hvcurveto
          901 109 rmoveto
          121 69 -61 -108 -135 -99 -91 -148 hvcurveto
          -143 hlineto
          84 395 rlineto
          endchar
        </CharString>
        <CharString name="Llinebelow">
          -153 1103 346 -34 callsubr
          -161 -219 -81 callsubr
          endchar
        </CharString>
        <CharString name="Lslash">
          -153 516 346 rmoveto
          61 288 259 121 74 348 -259 -121 98 461 rlineto
          -424 hlineto
          -145 -680 -120 -56 -74 -348 120 56 -88 -415 rlineto
          1011 hlineto
          74 346 rlineto
          endchar
        </CharString>
        <CharString name="M">
          543 393 22 callgsubr
        </CharString>
        <CharString name="Macute">
          543 393 -66 callsubr
          1276 1555 rmoveto
          50 callsubr
        </CharString>
        <CharString name="Mdotaccent">
          543 393 -66 callsubr
          1159 1603 -102 callgsubr
        </CharString>
        <CharString name="Mdotbelow">
          543 393 -66 callsubr
          756 -56 callgsubr
        </CharString>
        <CharString name="Mugreek">
          543 393 22 callgsubr
        </CharString>
        <CharString name="N">
          202 -85 callgsubr
          endchar
        </CharString>
        <CharString name="Nacute">
          202 -85 callgsubr
          1096 1555 rmoveto
          50 callsubr
        </CharString>
        <CharString name="Ncaron">
          202 -85 callgsubr
          771 1536 -83 callsubr
        </CharString>
        <CharString name="Ncircumflexbelow">
          202 -85 callgsubr
          804 -165 -93 callsubr
        </CharString>
        <CharString name="Ncommaaccent">
          202 -85 callgsubr
          514 -475 -40 callsubr
        </CharString>
        <CharString name="Ndotaccent">
          202 -85 callgsubr
          979 1603 -102 callgsubr
        </CharString>
        <CharString name="Ndotbelow">
          202 -85 callgsubr
          617 -56 callgsubr
        </CharString>
        <CharString name="Ngrave">
          202 -85 callgsubr
          790 1555 -60 callsubr
          endchar
        </CharString>
        <CharString name="Njecyrillic">
          938 904 hmoveto
          629 hlineto
          411 258 203 321 242 -188 150 -331 hvcurveto
          -160 hlineto
          112 527 rlineto
          -424 hlineto
          -112 -528 rlineto
          -458 hlineto
          113 528 36 callgsubr
          126 589 rlineto
          457 hlineto
          366 -274 rmoveto
          111 callgsubr
          149 hlineto
          106 65 -38 -84 -103 -95 -66 -135 hvcurveto
          endchar
        </CharString>
        <CharString name="Nlinebelow">
          202 -85 callgsubr
          1010 -219 -81 callsubr
          endchar
        </CharString>
        <CharString name="Ntilde">
          202 -85 callgsubr
          1107 1546 -105 callsubr
          endchar
        </CharString>
        <CharString name="Nugreek">
          202 -85 callgsubr
          endchar
        </CharString>
        <CharString name="NumberSignCyrillic">
          1112 444 hmoveto
          155 728 rlineto
          20 hlineto
          363 -728 rlineto
          326 -38 callgsubr
          -400 hlineto
          -152 -716 rlineto
          -20 hlineto
          -363 716 rlineto
          -329 -94 callsubr
          2278 332 rmoveto
          59 280 rlineto
          -718 hlineto
          -59 -280 rlineto
          608 766 rmoveto
          -91 -57 -64 -81 -68 -43 48 76 89 58 64 82 64 45 -50 -72 vhcurveto
          286 12 rmoveto
          216 -148 140 -230 -258 -185 -173 -240 -215 149 -140 229 258 185 172 240 vhcurveto
          endchar
        </CharString>
        <CharString name="O">
          -104 callsubr
          endchar
        </CharString>
        <CharString name="OE">
          926 1126 hmoveto
          907 hlineto
          71 336 rlineto
          -594 hlineto
          50 233 rlineto
          556 hlineto
          65 304 rlineto
          -556 hlineto
          49 234 rlineto
          593 hlineto
          72 336 rlineto
          -906 hlineto
          -51 -234 -31 callsubr
          168 -85 -152 91 -199 hhcurveto
          -463 -339 -371 -505 -366 231 -251 337 188 174 79 126 88 hvcurveto
          8 hlineto
          5 649 rmoveto
          -282 -163 -234 -197 -146 -95 119 183 281 163 234 196 147 95 -118 -183 vhcurveto
          endchar
        </CharString>
        <CharString name="Oacute">
          -104 callsubr
          341 1580 rmoveto
          50 callsubr
        </CharString>
        <CharString name="Obreve">
          -104 callsubr
          -150 1895 -83 callgsubr
          endchar
        </CharString>
        <CharString name="Ocaron">
          -104 callsubr
          16 1561 -83 callsubr
        </CharString>
        <CharString name="Ocircumflex">
          -104 callsubr
          402 1897 -93 callsubr
        </CharString>
        <CharString name="Ocircumflexacute">
          -104 callsubr
          72 1867 -70 callgsubr
          -79 83 -28 callsubr
          endchar
        </CharString>
        <CharString name="Ocircumflexdotbelow">
          -104 callsubr
          402 1897 -95 callsubr
          -659 -2018 -102 callgsubr
        </CharString>
        <CharString name="Ocircumflexgrave">
          -104 callsubr
          72 1867 -70 callgsubr
          222 83 -15 callsubr
          endchar
        </CharString>
        <CharString name="Ocircumflexhookabove">
          -104 callsubr
          72 1867 -70 callgsubr
          -2 174 rmoveto
          13 35 40 7 38 hhcurveto
          57 37 -25 -39 -48 -36 -44 -57 -22 hvcurveto
          78 -135 rlineto
          141 57 108 116 138 vvcurveto
          110 -92 68 -142 -59 -67 -11 -18 -44 vhcurveto
          endchar
        </CharString>
        <CharString name="Ocircumflextilde">
          -104 callsubr
          411 1938 -87 callgsubr
          -339 -71 -70 callgsubr
          endchar
        </CharString>
        <CharString name="Ocyrillic">
          289 920 1130 -105 callgsubr
          endchar
        </CharString>
        <CharString name="Odblgrave">
          -104 callsubr
          -215 1580 -60 callsubr
          676 -321 -60 callsubr
          endchar
        </CharString>
        <CharString name="Odieresis">
          -104 callsubr
          -1 1584 -107 callsubr
          endchar
        </CharString>
        <CharString name="Odieresismacron">
          -104 callsubr
          -17 1861 rmoveto
          -48 callgsubr
          689 284 -81 callsubr
          -207 -104 rmoveto
          41 callgsubr
        </CharString>
        <CharString name="Odotaccent">
          -104 callsubr
          224 1628 -102 callgsubr
        </CharString>
        <CharString name="Odotaccentmacron">
          -104 callsubr
          205 1561 17 callsubr
        </CharString>
        <CharString name="Odotbelow">
          -104 callsubr
          -74 -457 -102 callgsubr
        </CharString>
        <CharString name="Ograve">
          -104 callsubr
          35 1580 -60 callsubr
          endchar
        </CharString>
        <CharString name="Ohookabove">
          -104 callsubr
          19 1832 -68 callsubr
        </CharString>
        <CharString name="Ohorn">
          -86 callgsubr
          endchar
        </CharString>
        <CharString name="Ohornacute">
          -86 callgsubr
          -462 701 rmoveto
          50 callsubr
        </CharString>
        <CharString name="Ohorndotbelow">
          -86 callgsubr
          -877 -1336 -102 callgsubr
        </CharString>
        <CharString name="Ohorngrave">
          -86 callgsubr
          -768 701 -60 callsubr
          endchar
        </CharString>
        <CharString name="Ohornhookabove">
          -86 callgsubr
          -784 953 -68 callsubr
        </CharString>
        <CharString name="Ohorntilde">
          -86 callgsubr
          -451 692 -105 callsubr
          endchar
        </CharString>
        <CharString name="Ohungarumlaut">
          -104 callsubr
          601 1580 2 callgsubr
        </CharString>
        <CharString name="Oinvertedbreve">
          -104 callsubr
          566 1561 -59 callgsubr
        </CharString>
        <CharString name="Omacron">
          -104 callsubr
          601 1811 -81 callsubr
          endchar
        </CharString>
        <CharString name="Omacronacute">
          -104 callsubr
          562 92 callsubr
          279 319 -28 callsubr
          endchar
        </CharString>
        <CharString name="Omacrongrave">
          -104 callsubr
          562 92 callsubr
          590 319 -15 callsubr
          endchar
        </CharString>
        <CharString name="Omegagreek">
          330 825 hmoveto
          -4 callsubr
        </CharString>
        <CharString name="Omegatonosgreek">
          675 144 15 callgsubr
          870 -1443 rmoveto
          -4 callsubr
        </CharString>
        <CharString name="Omicrongreek">
          -104 callsubr
          endchar
        </CharString>
        <CharString name="Omicrontonosgreek">
          592 144 15 callgsubr
          928 -313 -105 callgsubr
          endchar
        </CharString>
        <CharString name="Oogonek">
          -21 callsubr
          endchar
        </CharString>
        <CharString name="Oogonekmacron">
          -21 callsubr
          228 957 -81 callsubr
          endchar
        </CharString>
        <CharString name="Oslash">
          279 1156 855 rmoveto
          1 -8 0 -9 -9 vvcurveto
          -286 -166 -230 -194 -53 -47 16 29 -38 vhcurveto
          -102 230 rmoveto
          -1 9 0 9 9 vvcurveto
          284 165 231 194 54 47 -16 -29 38 vhcurveto
          582 250 rmoveto
          -166 166 -141 -141 rlineto
          69 -105 -136 39 -163 hhcurveto
          -443 -356 -350 -529 -127 32 -115 61 -96 hvcurveto
          -143 -143 167 -166 142 142 rlineto
          -69 105 134 -40 160 hhcurveto
          442 361 348 531 127 -32 116 -61 96 hvcurveto
          endchar
        </CharString>
        <CharString name="Oslashacute">
          279 1467 1876 rmoveto
          -364 hlineto
          -300 -321 rlineto
          322 hlineto
          31 -700 rmoveto
          1 -8 0 -9 -9 vvcurveto
          -286 -166 -230 -194 -53 -47 16 29 -38 vhcurveto
          -102 230 rmoveto
          -1 9 0 9 9 vvcurveto
          284 165 231 194 54 47 -16 -29 38 vhcurveto
          582 250 rmoveto
          -166 166 -141 -141 rlineto
          69 -105 -136 39 -163 hhcurveto
          -443 -356 -350 -529 -127 32 -115 61 -96 hvcurveto
          -143 -143 167 -166 142 142 rlineto
          -69 105 134 -40 160 hhcurveto
          442 361 348 531 127 -32 116 -61 96 hvcurveto
          endchar
        </CharString>
        <CharString name="Otilde">
          -104 callsubr
          352 1571 -105 callsubr
          endchar
        </CharString>
        <CharString name="Otildeacute">
          -104 callsubr
          93 1950 -28 callsubr
          -22 -670 -87 callgsubr
          endchar
        </CharString>
        <CharString name="Otildedieresis">
          -104 callsubr
          333 1561 -87 callgsubr
          -267 691 -10 callgsubr
        </CharString>
        <CharString name="Otildemacron">
          -104 callsubr
          672 2145 -81 callsubr
          -301 -404 -87 callgsubr
          endchar
        </CharString>
        <CharString name="P">
          50 325 -41 callgsubr
          -64 callgsubr
          endchar
        </CharString>
        <CharString name="Pacute">
          50 325 -41 callgsubr
          -64 callgsubr
          323 847 rmoveto
          50 callsubr
        </CharString>
        <CharString name="Pdotaccent">
          50 325 -41 callgsubr
          -64 callgsubr
          206 895 -102 callgsubr
        </CharString>
        <CharString name="Pecyrillic">
          265 1369 54 callgsubr
        </CharString>
        <CharString name="Phigreek">
          692 688 -153 rmoveto
          377 hlineto
          32 146 rlineto
          574 36 322 338 417 vvcurveto
          340 -223 238 -372 48 vhcurveto
          34 163 rlineto
          -377 hlineto
          -32 -153 rlineto
          -579 -37 -317 -340 -417 vvcurveto
          -322 208 -250 387 -51 vhcurveto
          67 318 rmoveto
          -156 29 -96 108 165 vvcurveto
          281 171 156 248 44 vhcurveto
          208 -795 rmoveto
          166 783 rlineto
          153 -28 100 -105 -170 vvcurveto
          -264 -155 -169 -264 -47 vhcurveto
          endchar
        </CharString>
        <CharString name="Pigreek">
          245 1354 hmoveto
          -62 callgsubr
          -1336 -94 callsubr
          433 hlineto
          237 1107 rlineto
          468 67 callgsubr
        </CharString>
        <CharString name="Psigreek">
          540 1030 hmoveto
          56 264 436 21 221 156 72 338 rlinecurve
          141 664 rlineto
          -395 hlineto
          -131 -616 -34 -162 -63 -54 -178 -22 rlinecurve
          182 854 rlineto
          -392 hlineto
          -179 -840 rlineto
          -129 4 -54 50 112 vvcurveto
          26 5 30 13 62 vhcurveto
          118 556 81 callgsubr
          -128 -602 rlineto
          -9 -42 -4 -41 -41 vvcurveto
          -262 182 -155 331 -22 vhcurveto
          -59 -278 rlineto
          endchar
        </CharString>
        <CharString name="Q">
          279 1387 -123 rmoveto
          -111 269 rlineto
          198 170 113 241 297 vvcurveto
          349 -239 265 -423 -443 -356 -350 -529 -350 246 -264 412 61 60 7 13 57 vhcurveto
          47 -118 rlineto
          -212 436 rmoveto
          -146 -95 58 callgsubr
          165 231 194 146 96 -117 -184 -109 -24 -105 -41 -83 hvcurveto
          30 callgsubr
          -341 hlineto
          86 -215 rlineto
          -3 -21 -10 -1 -9 hhcurveto
          endchar
        </CharString>
        <CharString name="R">
          87 606 774 rmoveto
          77 356 rlineto
          162 hlineto
          117 64 -51 -102 -118 -89 -85 -142 hvcurveto
          -470 669 rmoveto
          -307 -1443 rlineto
          424 hlineto
          103 484 rlineto
          149 hlineto
          136 -484 rlineto
          442 hlineto
          -160 524 rlineto
          220 86 119 198 204 vvcurveto
          247 -173 184 -304 vhcurveto
          endchar
        </CharString>
        <CharString name="Racute">
          87 1347 1876 rmoveto
          -364 hlineto
          -300 -321 rlineto
          322 hlineto
          -399 -781 rmoveto
          77 356 rlineto
          162 hlineto
          117 64 -51 -102 -118 -89 -85 -142 hvcurveto
          -470 669 rmoveto
          -307 -1443 rlineto
          424 hlineto
          103 484 rlineto
          149 hlineto
          136 -484 rlineto
          442 hlineto
          -160 524 rlineto
          220 86 119 198 204 vvcurveto
          247 -173 184 -304 vhcurveto
          endchar
        </CharString>
        <CharString name="Rcaron">
          87 994 1536 rmoveto
          327 336 rlineto
          -276 hlineto
          -173 -192 rlineto
          -8 hlineto
          -91 192 rlineto
          -276 hlineto
          183 -336 rlineto
          -74 -762 rmoveto
          77 356 rlineto
          162 hlineto
          117 64 -51 -102 -118 -89 -85 -142 hvcurveto
          -470 669 rmoveto
          -307 -1443 rlineto
          424 hlineto
          103 484 rlineto
          149 hlineto
          136 -484 rlineto
          442 hlineto
          -160 524 rlineto
          220 86 119 198 204 vvcurveto
          247 -173 184 -304 vhcurveto
          endchar
        </CharString>
        <CharString name="Rcommaaccent">
          87 154 -475 rmoveto
          308 hlineto
          271 321 rlineto
          -359 hlineto
          232 928 rmoveto
          77 356 rlineto
          162 hlineto
          117 64 -51 -102 -118 -89 -85 -142 hvcurveto
          -470 669 rmoveto
          -307 -1443 rlineto
          424 hlineto
          103 484 rlineto
          149 hlineto
          136 -484 rlineto
          442 hlineto
          -160 524 rlineto
          220 86 119 198 204 vvcurveto
          247 -173 184 -304 vhcurveto
          endchar
        </CharString>
        <CharString name="Rdblgrave">
          87 1209 1555 rmoveto
          -164 321 rlineto
          -332 hlineto
          206 -321 rlineto
          -180 0 rmoveto
          -164 321 rlineto
          -332 hlineto
          206 -321 rlineto
          157 -781 rmoveto
          77 356 rlineto
          162 hlineto
          117 64 -51 -102 -118 -89 -85 -142 hvcurveto
          -470 669 rmoveto
          -307 -1443 rlineto
          424 hlineto
          103 484 rlineto
          149 hlineto
          136 -484 rlineto
          442 hlineto
          -160 524 rlineto
          220 86 119 198 204 vvcurveto
          247 -173 184 -304 vhcurveto
          endchar
        </CharString>
        <CharString name="Rdotaccent">
          87 888 1603 rmoveto
          100 77 78 95 95 -77 78 -100 -100 -77 -78 -95 -95 77 -78 100 hvcurveto
          -282 -829 rmoveto
          77 356 rlineto
          162 hlineto
          117 64 -51 -102 -118 -89 -85 -142 hvcurveto
          -470 669 rmoveto
          -307 -1443 rlineto
          424 hlineto
          103 484 rlineto
          149 hlineto
          136 -484 rlineto
          442 hlineto
          -160 524 rlineto
          220 86 119 198 204 vvcurveto
          247 -173 184 -304 vhcurveto
          endchar
        </CharString>
        <CharString name="Rdotbelow">
          87 565 -136 rmoveto
          -100 -77 -78 -95 -95 77 -78 100 100 77 78 95 95 -77 78 -100 hvcurveto
          41 910 rmoveto
          77 356 rlineto
          162 hlineto
          117 64 -51 -102 -118 -89 -85 -142 hvcurveto
          -470 669 rmoveto
          -307 -1443 rlineto
          424 hlineto
          103 484 rlineto
          149 hlineto
          136 -484 rlineto
          442 hlineto
          -160 524 rlineto
          220 86 119 198 204 vvcurveto
          247 -173 184 -304 vhcurveto
          endchar
        </CharString>
        <CharString name="Rdotbelowmacron">
          87 1265 1786 rmoveto
          -748 hlineto
          -38 -180 rlineto
          748 hlineto
          -662 -1742 rmoveto
          -100 -77 -78 -95 -95 77 -78 100 100 77 78 95 95 -77 78 -100 hvcurveto
          41 910 rmoveto
          77 356 rlineto
          162 hlineto
          117 64 -51 -102 -118 -89 -85 -142 hvcurveto
          -470 669 rmoveto
          -307 -1443 rlineto
          424 hlineto
          103 484 rlineto
          149 hlineto
          136 -484 rlineto
          442 hlineto
          -160 524 rlineto
          220 86 119 198 204 vvcurveto
          247 -173 184 -304 vhcurveto
          endchar
        </CharString>
        <CharString name="Rhogreek">
          50 325 -41 callgsubr
          -64 callgsubr
          endchar
        </CharString>
        <CharString name="Rinvertedbreve">
          87 1230 1536 rmoveto
          4 21 2 21 20 vvcurveto
          148 -107 124 -224 -252 -166 -152 -182 -47 vhcurveto
          242 hlineto
          86 22 67 62 100 hhcurveto
          88 44 -47 -70 -10 -1 -10 -2 -11 hvcurveto
          -394 -762 rmoveto
          77 356 rlineto
          162 hlineto
          117 64 -51 -102 -118 -89 -85 -142 hvcurveto
          -470 669 rmoveto
          -307 -1443 rlineto
          424 hlineto
          103 484 rlineto
          149 hlineto
          136 -484 rlineto
          442 hlineto
          -160 524 rlineto
          220 86 119 198 204 vvcurveto
          247 -173 184 -304 vhcurveto
          endchar
        </CharString>
        <CharString name="Rlinebelow">
          87 172 -399 rmoveto
          748 hlineto
          38 180 rlineto
          -748 hlineto
          396 993 rmoveto
          77 356 rlineto
          162 hlineto
          117 64 -51 -102 -118 -89 -85 -142 hvcurveto
          -470 669 rmoveto
          -307 -1443 rlineto
          424 hlineto
          103 484 rlineto
          149 hlineto
          136 -484 rlineto
          442 hlineto
          -160 524 rlineto
          220 86 119 198 204 vvcurveto
          247 -173 184 -304 vhcurveto
          endchar
        </CharString>
        <CharString name="S">
          77 62 425 rmoveto
          -100 callgsubr
          endchar
        </CharString>
        <CharString name="Sacute">
          77 62 425 rmoveto
          -100 callgsubr
          542 1130 rmoveto
          50 callsubr
        </CharString>
        <CharString name="Sacutedotaccent">
          77 62 425 rmoveto
          -100 callgsubr
          759 1135 -85 callsubr
          -249 -3 -102 callgsubr
        </CharString>
        <CharString name="Scaron">
          77 62 425 rmoveto
          -100 callgsubr
          217 1111 -83 callsubr
        </CharString>
        <CharString name="Scarondotaccent">
          77 62 425 rmoveto
          -100 callgsubr
          229 1111 rmoveto
          310 hlineto
          321 306 rlineto
          -292 hlineto
          -162 -166 -31 callsubr
          -90 166 rlineto
          -268 hlineto
          436 28 0 callsubr
          endchar
        </CharString>
        <CharString name="Scedilla">
          77 793 905 rmoveto
          -116 34 -40 40 58 vvcurveto
          68 72 50 111 120 81 -57 -86 3 vhcurveto
          387 hlineto
          286 -2 -227 170 -372 hhcurveto
          -350 -254 -192 -294 -197 128 -130 241 -73 hvcurveto
          151 -46 rlineto
          136 -42 27 -31 -53 vvcurveto
          -72 -77 -49 -123 -119 -95 57 79 -12 vhcurveto
          -401 hlineto
          1 -251 178 -159 309 -33 -56 -68 rcurveline
          -29 -125 rlineto
          58 hlineto
          83 28 -10 -29 -31 -38 -16 -74 -41 -44 5 7 -25 hvcurveto
          -35 -161 rlineto
          -9 24 54 -6 60 hhcurveto
          189 139 100 136 84 -48 52 -90 13 hvcurveto
          43 53 rlineto
          344 21 230 184 286 vvcurveto
          208 -112 108 -259 75 vhcurveto
          endchar
        </CharString>
        <CharString name="Scircumflex">
          77 62 425 rmoveto
          -100 callgsubr
          603 1447 -93 callsubr
        </CharString>
        <CharString name="Scommaaccent">
          77 62 425 rmoveto
          -100 callgsubr
          47 -900 -40 callsubr
        </CharString>
        <CharString name="Sdotaccent">
          77 62 425 rmoveto
          -100 callgsubr
          425 1178 -102 callgsubr
        </CharString>
        <CharString name="Sdotbelow">
          77 62 425 rmoveto
          -100 callgsubr
          150 -907 -102 callgsubr
        </CharString>
        <CharString name="Sdotbelowdotaccent">
          77 62 425 rmoveto
          -100 callgsubr
          150 -907 -103 callgsubr
          275 2085 -102 callgsubr
        </CharString>
        <CharString name="Shacyrillic">
          787 23 hmoveto
          1868 hlineto
          307 1443 51 callsubr
          endchar
        </CharString>
        <CharString name="Shchacyrillic">
          874 2010 -285 rmoveto
          132 621 rlineto
          -180 hlineto
          236 1107 51 callsubr
          -307 -1443 rlineto
          1668 hlineto
          -61 -285 rlineto
          endchar
        </CharString>
        <CharString name="Sigmagreek">
          -4 578 343 rmoveto
          333 385 5 18 -143 353 2 8 rlineto
          577 hlineto
          72 336 rlineto
          -1113 hlineto
          -61 -284 202 -434 -419 -486 -51 -239 rlineto
          1159 hlineto
          71 335 rlineto
          -636 hlineto
          endchar
        </CharString>
        <CharString name="Softsigncyrillic">
          62 714 709 rmoveto
          121 69 -61 -108 -135 -99 -91 -148 hvcurveto
          -143 hlineto
          84 395 rlineto
          -575 -709 rmoveto
          629 hlineto
          414 260 222 352 291 -190 164 -334 hvcurveto
          -136 hlineto
          88 414 rlineto
          -424 hlineto
          endchar
        </CharString>
        <CharString name="T">
          -1 775 61 callgsubr
        </CharString>
        <CharString name="Taugreek">
          -1 775 61 callgsubr
        </CharString>
        <CharString name="Tbar">
          -1 1411 1107 rmoveto
          72 336 rlineto
          -1226 hlineto
          -72 -336 rlineto
          401 hlineto
          -46 -216 rlineto
          -253 hlineto
          -72 -336 rlineto
          254 hlineto
          -118 -555 rlineto
          424 hlineto
          118 555 rlineto
          304 hlineto
          71 336 rlineto
          -304 hlineto
          46 216 rlineto
          endchar
        </CharString>
        <CharString name="Tcaron">
          -1 775 -51 callgsubr
          381 1536 -83 callsubr
        </CharString>
        <CharString name="Tcedilla">
          -1 257 1443 rmoveto
          -72 -336 rlineto
          401 hlineto
          -235 -1107 rlineto
          223 hlineto
          -72 -86 -29 -125 rlineto
          58 hlineto
          83 28 -10 -29 -31 -38 -16 -74 -41 -44 5 7 -25 hvcurveto
          -35 -161 rlineto
          -9 24 54 -6 60 hhcurveto
          189 139 100 136 84 -48 52 -90 13 hvcurveto
          62 76 235 1107 rlineto
          401 hlineto
          72 336 rlineto
          endchar
        </CharString>
        <CharString name="Tcircumflexbelow">
          -1 775 -51 callgsubr
          334 -165 -93 callsubr
        </CharString>
        <CharString name="Tcommaaccent">
          -1 775 -51 callgsubr
          44 -475 -40 callsubr
        </CharString>
        <CharString name="Tdotaccent">
          -1 775 -51 callgsubr
          589 1603 -102 callgsubr
        </CharString>
        <CharString name="Tdotbelow">
          -1 775 -51 callgsubr
          147 -56 callgsubr
        </CharString>
        <CharString name="Tecyrillic">
          9 780 61 callgsubr
        </CharString>
        <CharString name="Thetagreek">
          362 1067 555 rmoveto
          66 319 rlineto
          -409 hlineto
          -66 -319 rlineto
          147 -580 rmoveto
          515 349 349 514 387 -260 242 -418 -515 -349 -349 -513 -387 261 -243 417 hvcurveto
          444 852 rmoveto
          -294 -177 -229 -236 -187 -103 117 192 295 178 232 235 187 103 -119 -194 vhcurveto
          endchar
        </CharString>
        <CharString name="Thorn">
          111 44 hmoveto
          423 hlineto
          51 241 rlineto
          289 hlineto
          356 252 257 310 248 -201 183 -272 hvcurveto
          -209 hlineto
          44 204 rlineto
          -426 hlineto
          309 -525 rmoveto
          153 hlineto
          120 63 -54 -101 -122 -94 -83 -139 hvcurveto
          -179 hlineto
          endchar
        </CharString>
        <CharString name="Tlinebelow">
          -1 775 -51 callgsubr
          540 -219 -81 callsubr
          endchar
        </CharString>
        <CharString name="Tsecyrillic">
          352 1488 -285 40 callgsubr
        </CharString>
        <CharString name="Tshecyrillic">
          483 1102 554 rmoveto
          134 50 -82 -117 -25 hvcurveto
          -76 -355 rlineto
          424 hlineto
          76 357 rlineto
          337 72 -149 212 -336 hhcurveto
          -125 -117 -42 -55 -70 hvcurveto
          -8 hlineto
          63 298 rlineto
          381 hlineto
          72 336 rlineto
          -1186 hlineto
          -72 -336 rlineto
          381 57 callsubr
          424 hlineto
          93 439 rlineto
          59 50 77 56 102 hhcurveto
          endchar
        </CharString>
        <CharString name="U">
          -102 callsubr
          endchar
        </CharString>
        <CharString name="Uacute">
          -102 callsubr
          400 1580 rmoveto
          50 callsubr
        </CharString>
        <CharString name="Ubreve">
          -102 callsubr
          -91 1895 -83 callgsubr
          endchar
        </CharString>
        <CharString name="Ucaron">
          -102 callsubr
          75 1561 -83 callsubr
        </CharString>
        <CharString name="Ucircumflex">
          -102 callsubr
          461 1897 -93 callsubr
        </CharString>
        <CharString name="Ucircumflexbelow">
          -102 callsubr
          107 -140 -93 callsubr
        </CharString>
        <CharString name="Ucyrillic">
          -69 callsubr
          endchar
        </CharString>
        <CharString name="Udblgrave">
          -102 callsubr
          -156 1580 -60 callsubr
          676 -321 -60 callsubr
          endchar
        </CharString>
        <CharString name="Udieresis">
          -102 callsubr
          58 1584 -107 callsubr
          endchar
        </CharString>
        <CharString name="Udieresisacute">
          -102 callsubr
          152 1950 -28 callsubr
          -356 -647 -107 callsubr
          endchar
        </CharString>
        <CharString name="Udieresisbelow">
          -102 callsubr
          -290 -425 -107 callsubr
          endchar
        </CharString>
        <CharString name="Udieresiscaron">
          -102 callsubr
          182 1951 13 callsubr
        </CharString>
        <CharString name="Udieresisgrave">
          -102 callsubr
          463 1950 -15 callsubr
          -135 -366 -107 callsubr
          endchar
        </CharString>
        <CharString name="Udieresismacron">
          -102 callsubr
          42 1861 rmoveto
          -48 callgsubr
          689 284 -81 callsubr
          -207 -104 rmoveto
          41 callgsubr
        </CharString>
        <CharString name="Udotbelow">
          -102 callsubr
          -80 -457 -102 callgsubr
        </CharString>
        <CharString name="Ugrave">
          -102 callsubr
          94 1580 -60 callsubr
          endchar
        </CharString>
        <CharString name="Uhookabove">
          -102 callsubr
          78 1832 -68 callsubr
        </CharString>
        <CharString name="Uhorn">
          -82 callgsubr
          endchar
        </CharString>
        <CharString name="Uhornacute">
          -82 callgsubr
          391 1580 rmoveto
          50 callsubr
        </CharString>
        <CharString name="Uhorndotbelow">
          -82 callgsubr
          -122 -457 -102 callgsubr
        </CharString>
        <CharString name="Uhorngrave">
          -82 callgsubr
          85 1580 -60 callsubr
          endchar
        </CharString>
        <CharString name="Uhornhookabove">
          -82 callgsubr
          69 1832 -68 callsubr
        </CharString>
        <CharString name="Uhorntilde">
          -82 callgsubr
          402 1571 -105 callsubr
          endchar
        </CharString>
        <CharString name="Uhungarumlaut">
          -102 callsubr
          660 1580 2 callgsubr
        </CharString>
        <CharString name="Uinvertedbreve">
          -102 callsubr
          625 1561 -59 callgsubr
        </CharString>
        <CharString name="Umacron">
          -102 callsubr
          660 1811 -81 callsubr
          endchar
        </CharString>
        <CharString name="Umacrondieresis">
          -102 callsubr
          621 92 callsubr
          253 325 0 callsubr
          444 -3 callgsubr
        </CharString>
        <CharString name="Uogonek">
          194 1025 -468 rmoveto
          52 callgsubr
          104 102 80 142 92 hvcurveto
          132 86 102 129 36 171 209 991 rcurveline
          -425 28 callgsubr
          -112 -91 66 115 5 callgsubr
          -9 -42 -4 -43 -38 vvcurveto
          -289 247 -199 381 5 6 1 1 5 vhcurveto
          -8 vlineto
          -109 -61 -77 -98 -96 44 callgsubr
          endchar
        </CharString>
        <CharString name="Upsilondieresisgreek">
          123 838 hmoveto
          -79 callgsubr
          359 1559 -107 callsubr
          endchar
        </CharString>
        <CharString name="Upsilongreek">
          123 838 hmoveto
          -79 callgsubr
          endchar
        </CharString>
        <CharString name="Upsilontonosgreek">
          754 244 15 callgsubr
          1069 -1443 50 callgsubr
        </CharString>
        <CharString name="Uring">
          -102 callsubr
          306 1599 -89 callgsubr
        </CharString>
        <CharString name="Ushortcyrillic">
          -69 callsubr
          324 1893 -73 callsubr
        </CharString>
        <CharString name="Utilde">
          -102 callsubr
          411 1571 -105 callsubr
          endchar
        </CharString>
        <CharString name="Utildeacute">
          -102 callsubr
          152 1950 -28 callsubr
          -22 -670 -87 callgsubr
          endchar
        </CharString>
        <CharString name="Utildebelow">
          -102 callsubr
          63 -440 -105 callsubr
          endchar
        </CharString>
        <CharString name="V">
          19 callsubr
          endchar
        </CharString>
        <CharString name="Vdotbelow">
          19 callsubr
          201 -56 callgsubr
        </CharString>
        <CharString name="Vecyrillic">
          90 813 -79 callsubr
          endchar
        </CharString>
        <CharString name="Vtilde">
          19 callsubr
          760 1546 -105 callsubr
          endchar
        </CharString>
        <CharString name="W">
          707 1087 -70 callsubr
          endchar
        </CharString>
        <CharString name="Wacute">
          707 1087 -70 callsubr
          711 1555 rmoveto
          50 callsubr
        </CharString>
        <CharString name="Wcircumflex">
          707 1087 -70 callsubr
          772 1872 -93 callsubr
        </CharString>
        <CharString name="Wdieresis">
          707 1087 -70 callsubr
          369 1559 -107 callsubr
          endchar
        </CharString>
        <CharString name="Wdotaccent">
          707 1087 -70 callsubr
          594 1603 -102 callgsubr
        </CharString>
        <CharString name="Wdotbelow">
          707 1087 -70 callsubr
          156 -56 callgsubr
        </CharString>
        <CharString name="Wgrave">
          707 1087 -70 callsubr
          405 1555 -60 callsubr
          endchar
        </CharString>
        <CharString name="X">
          169 -64 34 callgsubr
        </CharString>
        <CharString name="Xacyrillic">
          179 -59 34 callgsubr
        </CharString>
        <CharString name="Xdieresis">
          169 -64 hmoveto
          -58 callgsubr
          243 832 -107 callsubr
          endchar
        </CharString>
        <CharString name="Xdotaccent">
          169 -64 hmoveto
          -58 callgsubr
          468 876 -102 callgsubr
        </CharString>
        <CharString name="Xigreek">
          -26 299 -41 callgsubr
          105 callgsubr
          -273 -880 rmoveto
          66 314 rlineto
          -942 hlineto
          -66 -314 rlineto
          -134 -217 105 callgsubr
          endchar
        </CharString>
        <CharString name="Y">
          123 838 hmoveto
          -79 callgsubr
          endchar
        </CharString>
        <CharString name="Yacute">
          123 838 hmoveto
          -79 callgsubr
          701 1555 rmoveto
          50 callsubr
        </CharString>
        <CharString name="Ycircumflex">
          123 838 hmoveto
          -79 callgsubr
          762 1872 -93 callsubr
        </CharString>
        <CharString name="Ydieresis">
          123 838 hmoveto
          -79 callgsubr
          359 1559 -107 callsubr
          endchar
        </CharString>
        <CharString name="Ydotaccent">
          123 838 hmoveto
          -79 callgsubr
          584 1603 -102 callgsubr
        </CharString>
        <CharString name="Ydotbelow">
          123 838 hmoveto
          -79 callgsubr
          147 -56 callgsubr
        </CharString>
        <CharString name="Yericyrillic">
          -63 callgsubr
          endchar
        </CharString>
        <CharString name="Ygrave">
          123 838 hmoveto
          -79 callgsubr
          395 1555 -60 callsubr
          endchar
        </CharString>
        <CharString name="Yhookabove">
          123 838 hmoveto
          -79 callgsubr
          379 1807 -68 callsubr
        </CharString>
        <CharString name="Yicyrillic">
          -657 447 hmoveto
          -91 callsubr
          365 1559 -107 callsubr
          endchar
        </CharString>
        <CharString name="Yicyrillic.1">
          -203 1032 1559 rmoveto
          86 63 63 78 78 -63 63 -86 -86 -63 -63 -78 -78 63 -63 86 hvcurveto
          -418 0 rmoveto
          86 63 63 78 78 -63 63 -86 -86 -63 -63 -78 -78 63 -63 86 hvcurveto
          564 -437 rmoveto
          69 321 rlineto
          -267 hlineto
          -424 hlineto
          -265 hlineto
          -69 -321 rlineto
          266 hlineto
          -171 -801 rlineto
          -265 hlineto
          -68 -321 rlineto
          265 hlineto
          424 hlineto
          267 hlineto
          68 321 rlineto
          -267 hlineto
          171 801 rlineto
          endchar
        </CharString>
        <CharString name="Ymacron">
          123 838 hmoveto
          -79 callgsubr
          961 1786 -81 callsubr
          endchar
        </CharString>
        <CharString name="Ytilde">
          123 838 hmoveto
          -79 callgsubr
          712 1546 -105 callsubr
          endchar
        </CharString>
        <CharString name="Z">
          -26 -18 hmoveto
          -61 callsubr
          endchar
        </CharString>
        <CharString name="Zacute">
          -26 -18 hmoveto
          -61 callsubr
          997 1289 rmoveto
          50 callsubr
        </CharString>
        <CharString name="Zcaron">
          -26 -18 hmoveto
          -61 callsubr
          672 1270 -83 callsubr
        </CharString>
        <CharString name="Zcircumflex">
          -26 -18 hmoveto
          -61 callsubr
          1058 1606 -93 callsubr
        </CharString>
        <CharString name="Zdotaccent">
          -26 -18 hmoveto
          -61 callsubr
          880 1337 -102 callgsubr
        </CharString>
        <CharString name="Zdotbelow">
          -26 -18 hmoveto
          -61 callsubr
          447 -748 -102 callgsubr
        </CharString>
        <CharString name="Zecyrillic">
          60 527 591 -72 callgsubr
          endchar
        </CharString>
        <CharString name="Zetagreek">
          -26 -18 hmoveto
          -61 callsubr
          endchar
        </CharString>
        <CharString name="Zhecyrillic">
          859 902 -45 callsubr
          endchar
        </CharString>
        <CharString name="Zlinebelow">
          -26 -18 hmoveto
          -61 callsubr
          840 -485 -81 callsubr
          endchar
        </CharString>
        <CharString name="a">
          -107 callgsubr
          endchar
        </CharString>
        <CharString name="a.1">
          21 634 -106 callsubr
          endchar
        </CharString>
        <CharString name="aacute">
          -107 callgsubr
          598 1291 -76 callgsubr
        </CharString>
        <CharString name="aacute.1">
          21 634 -106 callsubr
          293 1276 -76 callgsubr
        </CharString>
        <CharString name="abreve">
          -107 callgsubr
          65 1606 -78 callsubr
          endchar
        </CharString>
        <CharString name="abreve.1">
          21 634 -106 callsubr
          -240 1591 -78 callsubr
          endchar
        </CharString>
        <CharString name="abreveacute">
          -107 callgsubr
          294 1647 -30 callgsubr
          274 -342 -81 callgsubr
          endchar
        </CharString>
        <CharString name="abreveacute.1">
          21 634 -106 callsubr
          -11 1632 -30 callgsubr
          274 -342 -81 callgsubr
          endchar
        </CharString>
        <CharString name="abrevedotbelow">
          -107 callgsubr
          65 1606 -78 callsubr
          -159 -2072 -102 callgsubr
        </CharString>
        <CharString name="abrevedotbelow.1">
          21 634 -106 callsubr
          -240 1591 -78 callsubr
          -259 -2073 -102 callgsubr
        </CharString>
        <CharString name="abrevegrave">
          -107 callgsubr
          592 1641 -27 callsubr
          499 -55 -81 callgsubr
          endchar
        </CharString>
        <CharString name="abrevegrave.1">
          21 634 -106 callsubr
          287 1626 -27 callsubr
          499 -55 -81 callgsubr
          endchar
        </CharString>
        <CharString name="abrevehookabove">
          -107 callgsubr
          242 1856 rmoveto
          8 27 32 4 33 hhcurveto
          57 33 -23 -40 -40 -34 -32 -63 -25 hvcurveto
          78 -128 rlineto
          131 48 105 118 108 vvcurveto
          107 -93 74 -135 -40 -50 -6 -12 -46 vhcurveto
          553 -431 -81 callgsubr
          endchar
        </CharString>
        <CharString name="abrevehookabove.1">
          21 634 -106 callsubr
          -63 1841 rmoveto
          8 27 32 4 33 hhcurveto
          57 33 -23 -40 -40 -34 -32 -63 -25 hvcurveto
          78 -128 rlineto
          131 48 105 118 108 vvcurveto
          107 -93 74 -135 -40 -50 -6 -12 -46 vhcurveto
          553 -431 -81 callgsubr
          endchar
        </CharString>
        <CharString name="abrevetilde">
          -107 callgsubr
          830 1586 -81 callgsubr
          -220 49 -105 callsubr
          endchar
        </CharString>
        <CharString name="abrevetilde.1">
          21 634 -106 callsubr
          525 1571 -81 callgsubr
          -220 49 -105 callsubr
          endchar
        </CharString>
        <CharString name="acaron">
          -107 callgsubr
          541 1272 -77 callgsubr
        </CharString>
        <CharString name="acaron.1">
          21 634 -106 callsubr
          236 1257 -77 callgsubr
        </CharString>
        <CharString name="acircumflex">
          -107 callgsubr
          612 1608 -87 callsubr
        </CharString>
        <CharString name="acircumflex.1">
          21 634 -106 callsubr
          307 1593 -87 callsubr
        </CharString>
        <CharString name="acircumflexacute">
          -107 callgsubr
          581 1588 -96 callsubr
          -140 395 -30 callgsubr
          endchar
        </CharString>
        <CharString name="acircumflexacute.1">
          21 634 -106 callsubr
          276 1573 -96 callsubr
          -140 395 -30 callgsubr
          endchar
        </CharString>
        <CharString name="acircumflexdotbelow">
          -107 callgsubr
          612 1608 -96 callsubr
          -657 -1738 -102 callgsubr
        </CharString>
        <CharString name="acircumflexdotbelow.1">
          21 634 -106 callsubr
          307 1593 -96 callsubr
          -757 -1739 -102 callgsubr
        </CharString>
        <CharString name="acircumflexgrave">
          -107 callgsubr
          992 1641 -27 callsubr
          -150 -53 -87 callsubr
        </CharString>
        <CharString name="acircumflexgrave.1">
          21 634 -106 callsubr
          687 1626 -27 callsubr
          -150 -53 -87 callsubr
        </CharString>
        <CharString name="acircumflexhookabove">
          -107 callgsubr
          625 1832 -55 callgsubr
        </CharString>
        <CharString name="acircumflexhookabove.1">
          21 634 -106 callsubr
          320 1817 -55 callgsubr
        </CharString>
        <CharString name="acircumflextilde">
          -107 callgsubr
          576 1568 rmoveto
          -314 hlineto
          -323 -316 rlineto
          296 hlineto
          159 164 rlineto
          8 hlineto
          89 -164 104 callgsubr
          -153 383 -105 callsubr
          endchar
        </CharString>
        <CharString name="acircumflextilde.1">
          21 634 -106 callsubr
          271 1553 rmoveto
          -314 hlineto
          -323 -316 rlineto
          296 hlineto
          159 164 rlineto
          8 hlineto
          89 -164 104 callgsubr
          -153 383 -105 callsubr
          endchar
        </CharString>
        <CharString name="acute">
          -259 729 1275 -76 callgsubr
        </CharString>
        <CharString name="acutecmb">
          408 1275 -76 callgsubr
        </CharString>
        <CharString name="acutecmb.short">
          404 1555 rmoveto
          50 callsubr
        </CharString>
        <CharString name="acutedotaccentcmb">
          529 1275 rmoveto
          334 321 rlineto
          -348 hlineto
          -300 -321 rlineto
          -224 -6 -102 callgsubr
        </CharString>
        <CharString name="acutedotaccentcmb.short">
          621 1560 -85 callsubr
          -249 -3 -102 callgsubr
        </CharString>
        <CharString name="acyrillic">
          -107 callgsubr
          endchar
        </CharString>
        <CharString name="acyrillic.1">
          28 644 -106 callsubr
          endchar
        </CharString>
        <CharString name="adblgrave">
          -107 callgsubr
          363 1292 -43 callgsubr
        </CharString>
        <CharString name="adblgrave.1">
          21 634 -106 callsubr
          58 1277 -43 callgsubr
        </CharString>
        <CharString name="adieresis">
          -107 callgsubr
          206 1271 -107 callsubr
          endchar
        </CharString>
        <CharString name="adieresis.1">
          21 634 -106 callsubr
          -99 1256 -107 callsubr
          endchar
        </CharString>
        <CharString name="adieresismacron">
          -107 callgsubr
          184 1251 -107 callsubr
          260 585 -74 callgsubr
        </CharString>
        <CharString name="adieresismacron.1">
          21 634 -106 callsubr
          -121 1236 -107 callsubr
          260 585 -74 callgsubr
        </CharString>
        <CharString name="adotaccent">
          -107 callgsubr
          406 1280 -102 callgsubr
        </CharString>
        <CharString name="adotaccent.1">
          21 634 -106 callsubr
          101 1265 -102 callgsubr
        </CharString>
        <CharString name="adotbelow">
          -107 callgsubr
          138 -466 -102 callgsubr
        </CharString>
        <CharString name="adotbelow.1">
          21 634 -106 callsubr
          -267 -56 callgsubr
        </CharString>
        <CharString name="adotmacron">
          -107 callgsubr
          398 1238 -103 callgsubr
          464 598 -74 callgsubr
        </CharString>
        <CharString name="adotmacron.1">
          21 634 -106 callsubr
          93 1223 -103 callgsubr
          464 598 -74 callgsubr
        </CharString>
        <CharString name="ae">
          574 1250 -86 callsubr
          endchar
        </CharString>
        <CharString name="aeacute">
          574 1250 -86 callsubr
          779 1030 -76 callgsubr
        </CharString>
        <CharString name="aemacron">
          574 1250 -86 callsubr
          965 1211 -74 callgsubr
        </CharString>
        <CharString name="agrave">
          -107 callgsubr
          506 1291 -35 callgsubr
        </CharString>
        <CharString name="agrave.1">
          21 634 -106 callsubr
          201 1276 -35 callgsubr
        </CharString>
        <CharString name="ahookabove">
          -107 callgsubr
          248 1538 -68 callgsubr
        </CharString>
        <CharString name="ahookabove.1">
          21 634 -106 callsubr
          -57 1523 -68 callgsubr
        </CharString>
        <CharString name="ainvertedbreve">
          -107 callgsubr
          756 1252 -60 callgsubr
        </CharString>
        <CharString name="ainvertedbreve.1">
          21 634 -106 callsubr
          451 1237 -60 callgsubr
        </CharString>
        <CharString name="alphagreek">
          -18 callgsubr
          endchar
        </CharString>
        <CharString name="alphatonosgreek">
          -18 callgsubr
          2 990 -30 callsubr
          endchar
        </CharString>
        <CharString name="amacron">
          -107 callgsubr
          784 1472 -74 callgsubr
        </CharString>
        <CharString name="amacron.1">
          21 634 -106 callsubr
          479 1457 -74 callgsubr
        </CharString>
        <CharString name="ampersand">
          219 687 1066 rmoveto
          78 61 62 76 67 46 -43 -63 -86 -50 -56 -122 -51 vhcurveto
          -57 71 -21 43 45 vvcurveto
          -62 -823 rmoveto
          -123 -86 63 90 78 53 63 98 39 hvcurveto
          8 3 14 5 15 5 201 -305 rcurveline
          -27 -59 -61 -14 -60 hhcurveto
          367 -243 rmoveto
          394 hlineto
          -170 252 139 144 84 172 18 175 rlinecurve
          2 19 rlineto
          -321 hlineto
          -1 -15 -5 -78 -31 -84 -54 -84 rlinecurve
          -145 216 rlineto
          243 104 120 138 177 vvcurveto
          183 -194 137 -257 -262 -196 -150 -201 -94 35 -91 81 -114 vhcurveto
          -82 -33 rlineto
          -224 -90 -116 -141 -182 vvcurveto
          -226 223 -162 312 123 126 30 58 118 vhcurveto
          endchar
        </CharString>
        <CharString name="anoteleia">
          -689 416 716 -35 callsubr
          endchar
        </CharString>
        <CharString name="aogonek">
          -125 533 252 rmoveto
          -74 -51 36 54 63 60 43 90 2 hvcurveto
          171 4 -15 -71 rlineto
          -75 -16 -78 -56 -87 hhcurveto
          334 -713 rmoveto
          29 callsubr
          28 44 78 129 96 124 32 hvcurveto
          39 10 148 696 rlineto
          5 22 4 39 28 vvcurveto
          201 -199 136 -293 -282 -208 -141 -231 -44 vhcurveto
          357 hlineto
          58 20 55 30 74 hhcurveto
          80 54 -34 -51 -7 -1 -7 -3 -17 hvcurveto
          -13 -64 -241 -5 rlineto
          -314 -7 -193 -144 -229 vvcurveto
          -172 138 -127 183 139 113 59 87 54 vhcurveto
          8 hlineto
          -33 -151 rlineto
          -107 -61 -89 -86 -118 56 callsubr
          endchar
        </CharString>
        <CharString name="aogonek.1">
          21 634 285 rmoveto
          -93 -62 74 112 187 106 151 132 93 60 -74 58 callsubr
          -110 -157 -126 hvcurveto
          362 -746 rmoveto
          29 callsubr
          28 44 78 129 96 124 32 hvcurveto
          39 10 233 1094 rlineto
          -387 hlineto
          -38 -178 rlineto
          -19 hlineto
          118 -35 -124 76 -159 hhcurveto
          -317 -235 -306 -411 -259 141 -160 227 139 110 57 115 81 hvcurveto
          18 hlineto
          -39 -184 rlineto
          -97 -59 -87 -85 -114 56 callsubr
          endchar
        </CharString>
        <CharString name="approxequal">
          106 992 581 -29 callsubr
          -130 -530 -29 callsubr
          endchar
        </CharString>
        <CharString name="approxequal.uc">
          106 1021 747 -29 callsubr
          -130 -530 -29 callsubr
          endchar
        </CharString>
        <CharString name="aring">
          -107 callgsubr
          429 1251 -89 callgsubr
        </CharString>
        <CharString name="aring.1">
          21 634 -106 callsubr
          124 1236 -89 callgsubr
        </CharString>
        <CharString name="aringacute">
          -107 callgsubr
          333 1767 -20 callsubr
        </CharString>
        <CharString name="aringacute.1">
          21 634 -106 callsubr
          28 1752 -20 callsubr
        </CharString>
        <CharString name="aringbelow">
          -107 callgsubr
          154 -529 -89 callgsubr
        </CharString>
        <CharString name="aringbelow.1">
          21 634 -106 callsubr
          -251 -545 -89 callgsubr
        </CharString>
        <CharString name="asciicircum">
          -225 507 1095 rmoveto
          18 hlineto
          79 -289 rlineto
          332 hlineto
          -202 596 rlineto
          -329 hlineto
          -461 -596 rlineto
          351 hlineto
          endchar
        </CharString>
        <CharString name="asciitilde">
          106 981 482 rmoveto
          213 117 164 325 58 hvcurveto
          -288 hlineto
          -102 -21 -49 -53 -55 -118 -51 181 -214 hhcurveto
          -201 -136 -162 -325 -58 hvcurveto
          287 hlineto
          102 22 47 50 57 128 47 -180 215 hhcurveto
          endchar
        </CharString>
        <CharString name="asterisk">
          -341 875 768 rmoveto
          144 187 -239 128 280 80 -83 218 -243 -142 85 263 -242 25 -10 -276 -186 189 -145 -189 236 -130 -276 -77 82 -215 243 143 -88 -265 239 -25 9 284 rlineto
          endchar
        </CharString>
        <CharString name="asterisk.uc">
          106 1168 210 rmoveto
          227 280 -368 208 427 128 -122 317 -403 -223 131 443 -348 36 -24 -457 -314 302 -227 -280 367 -211 -426 -125 121 -318 406 225 -133 -445 348 -36 27 451 rlineto
          endchar
        </CharString>
        <CharString name="at">
          544 1065 1448 -32 callsubr
        </CharString>
        <CharString name="at.uc">
          544 1089 1562 -32 callsubr
        </CharString>
        <CharString name="atilde">
          -107 callgsubr
          546 1272 -105 callsubr
          endchar
        </CharString>
        <CharString name="atilde.1">
          21 634 -106 callsubr
          241 1257 -105 callsubr
          endchar
        </CharString>
        <CharString name="austral">
          106 890 hmoveto
          426 hlineto
          -21 305 rlineto
          62 hlineto
          38 180 rlineto
          -112 hlineto
          -9 127 rlineto
          148 hlineto
          40 180 rlineto
          -200 hlineto
          -44 651 rlineto
          -532 hlineto
          -336 -651 rlineto
          -262 hlineto
          -40 -180 rlineto
          210 hlineto
          -66 -127 rlineto
          -171 hlineto
          -39 -180 rlineto
          117 hlineto
          -158 -305 rlineto
          417 hlineto
          142 305 rlineto
          387 hlineto
          -30 764 rmoveto
          21 hlineto
          3 -281 rlineto
          -155 hlineto
          159 -303 rmoveto
          -301 hlineto
          62 131 rlineto
          237 hlineto
          endchar
        </CharString>
        <CharString name="b">
          -54 callsubr
          endchar
        </CharString>
        <CharString name="backslash">
          -497 268 -313 98 callgsubr
        </CharString>
        <CharString name="backslash.uc">
          -497 301 -157 98 callgsubr
        </CharString>
        <CharString name="baht">
          106 897 1160 rmoveto
          59 -15 36 -41 -58 vvcurveto
          -87 -64 -66 -91 -14 vhcurveto
          -53 -249 rmoveto
          86 -11 52 -50 -74 vvcurveto
          -114 -83 -77 -125 -4 vhcurveto
          -245 0 rmoveto
          70 332 rlineto
          99 hlineto
          -71 -332 rlineto
          87 865 rmoveto
          97 hlineto
          -61 -289 rlineto
          -98 hlineto
          465 -109 rmoveto
          192 14 149 161 195 vvcurveto
          181 -171 125 -249 vhcurveto
          -21 hlineto
          29 136 rlineto
          -147 hlineto
          -29 -136 rlineto
          -509 hlineto
          -307 -1443 rlineto
          509 hlineto
          -28 -134 rlineto
          147 hlineto
          28 134 rlineto
          135 hlineto
          315 225 190 265 148 -104 113 -164 31 hvcurveto
          endchar
        </CharString>
        <CharString name="bar">
          -497 448 -313 83 callsubr
        </CharString>
        <CharString name="bar.uc">
          -497 481 -157 83 callsubr
        </CharString>
        <CharString name="bdotaccent">
          -54 callsubr
          -78 1307 -102 callgsubr
        </CharString>
        <CharString name="bdotbelow">
          -54 callsubr
          -221 -772 -102 callgsubr
        </CharString>
        <CharString name="becyrillic">
          -11 847 1064 rmoveto
          -159 -118 -63 -133 -91 hvcurveto
          -14 hlineto
          53 191 140 104 223 15 166 11 rcurveline
          159 10 60 7 46 14 75 303 rcurveline
          -43 -11 -56 -6 -202 -15 -161 -12 rcurveline
          -372 -28 -255 -176 -120 -304 -47 -118 -26 -137 -6 -155 rrcurveto
          -362 -12 200 -224 334 hhcurveto
          379 239 242 398 13 hvcurveto
          282 10 -150 167 -265 hhcurveto
          -206 -789 rmoveto
          -97 -60 83 126 5 hvcurveto
          174 6 96 129 125 61 callsubr
          endchar
        </CharString>
        <CharString name="betagreek">
          47 184 902 rmoveto
          -267 -1255 rlineto
          395 hlineto
          119 550 rlineto
          8 hlineto
          -140 69 120 -73 158 hhcurveto
          301 209 186 293 163 -93 107 -162 37 hvcurveto
          3 8 rlineto
          148 38 97 110 165 vvcurveto
          234 -190 146 -291 -362 -175 -159 -410 -87 vhcurveto
          420 -278 rmoveto
          71 hlineto
          134 82 -49 -101 -106 -85 -76 -122 -124 -68 73 107 27 3 28 6 26 hvcurveto
          91 420 rlineto
          141 31 63 60 100 hhcurveto
          75 59 -41 -81 -114 -77 -43 -114 hvcurveto
          -68 hlineto
          endchar
        </CharString>
        <CharString name="bitcoin">
          106 623 870 rmoveto
          60 277 rlineto
          129 hlineto
          84 54 -44 -70 -94 -78 -69 -105 hvcurveto
          -262 -553 rmoveto
          68 319 rlineto
          144 hlineto
          102 64 -51 -81 -112 -85 -75 -125 hvcurveto
          339 448 rmoveto
          185 14 143 154 187 vvcurveto
          147 -118 108 -180 30 vhcurveto
          47 222 rlineto
          -159 hlineto
          -45 -213 rlineto
          -146 hlineto
          44 213 rlineto
          -160 hlineto
          -45 -213 rlineto
          -224 hlineto
          -295 -1385 rlineto
          248 hlineto
          -25 -6 -46 -217 rlineto
          160 hlineto
          46 216 19 7 rlineto
          124 hlineto
          4 -6 -46 -217 rlineto
          159 hlineto
          48 223 rlineto
          1 hlineto
          303 216 182 255 142 -100 108 -158 30 hvcurveto
          endchar
        </CharString>
        <CharString name="blinebelow">
          -54 callsubr
          172 -509 -81 callsubr
          endchar
        </CharString>
        <CharString name="braceleft">
          -497 159 188 -18 callsubr
        </CharString>
        <CharString name="braceleft.uc">
          -497 192 344 -18 callsubr
        </CharString>
        <CharString name="braceright">
          -497 711 942 -17 callgsubr
        </CharString>
        <CharString name="braceright.uc">
          -497 745 1098 -17 callgsubr
        </CharString>
        <CharString name="bracketleft">
          -497 357 -41 callgsubr
          59 callsubr
        </CharString>
        <CharString name="bracketleft.uc">
          -497 391 1599 59 callsubr
        </CharString>
        <CharString name="bracketright">
          -497 513 -313 59 callgsubr
        </CharString>
        <CharString name="bracketright.uc">
          -497 547 -157 59 callgsubr
        </CharString>
        <CharString name="breve">
          -258 376 1590 -78 callsubr
          endchar
        </CharString>
        <CharString name="breveacutecmb">
          108 1651 -30 callgsubr
          274 -342 -81 callgsubr
          endchar
        </CharString>
        <CharString name="breveacutecmb.short">
          156 1925 -28 callsubr
          -180 -670 -44 callsubr
        </CharString>
        <CharString name="brevebelowcmb">
          -515 -142 -83 callgsubr
          endchar
        </CharString>
        <CharString name="brevecmb">
          -125 1590 -78 callsubr
          endchar
        </CharString>
        <CharString name="brevecmb.short">
          -87 1870 -83 callgsubr
          endchar
        </CharString>
        <CharString name="brevecyrillic">
          -293 375 1604 -80 callgsubr
        </CharString>
        <CharString name="brevecyrillic.short">
          -75 1877 -73 callsubr
        </CharString>
        <CharString name="brevegravecmb">
          406 1645 -27 callsubr
          499 -55 -81 callgsubr
          endchar
        </CharString>
        <CharString name="brevegravecmb.short">
          467 1925 21 callgsubr
        </CharString>
        <CharString name="brevehookabovecmb">
          56 1860 rmoveto
          8 27 32 4 33 hhcurveto
          57 33 -23 -40 -40 -34 -32 -63 -25 hvcurveto
          78 -128 rlineto
          131 48 105 118 108 vvcurveto
          107 -93 74 -135 -40 -50 -6 -12 -46 vhcurveto
          553 -431 -81 callgsubr
          endchar
        </CharString>
        <CharString name="brevehookabovecmb.short">
          118 2061 rmoveto
          8 19 36 6 37 hhcurveto
          51 33 -21 -35 -32 -31 -31 -49 -17 hvcurveto
          73 -115 rlineto
          121 36 98 98 108 vvcurveto
          97 -91 68 -129 -40 -46 -6 -12 -47 vhcurveto
          85 -677 -44 callsubr
        </CharString>
        <CharString name="brevetildecmb">
          644 1590 -81 callgsubr
          -220 49 -105 callsubr
          endchar
        </CharString>
        <CharString name="brevetildecmb.short">
          474 1913 -87 callgsubr
          -236 -377 -44 callsubr
        </CharString>
        <CharString name="brokenbar">
          -497 673 746 55 callgsubr
        </CharString>
        <CharString name="brokenbar.uc">
          -497 707 902 55 callgsubr
        </CharString>
        <CharString name="bullet">
          -341 515 164 16 callgsubr
        </CharString>
        <CharString name="bullet.uc">
          -341 547 313 16 callgsubr
        </CharString>
        <CharString name="c">
          -107 706 1132 -88 callsubr
          endchar
        </CharString>
        <CharString name="cacute">
          -107 706 1132 -88 callsubr
          272 144 -76 callgsubr
        </CharString>
        <CharString name="caron">
          -259 858 1256 -77 callgsubr
        </CharString>
        <CharString name="caroncmb">
          351 1256 -77 callgsubr
        </CharString>
        <CharString name="caroncmb.short">
          79 1536 -83 callsubr
        </CharString>
        <CharString name="carondotaccentcmb">
          33 1256 33 callgsubr
        </CharString>
        <CharString name="carondotaccentcmb.short">
          91 1536 rmoveto
          310 hlineto
          321 306 rlineto
          -292 hlineto
          -162 -166 -31 callsubr
          -90 166 rlineto
          -268 hlineto
          436 28 0 callsubr
          endchar
        </CharString>
        <CharString name="caronslovak">
          -291 564 27 callgsubr
          endchar
        </CharString>
        <CharString name="ccaron">
          -107 706 1132 -88 callsubr
          215 125 -77 callgsubr
        </CharString>
        <CharString name="ccedilla">
          -107 1202 667 rmoveto
          1 6 0 5 43 vvcurveto
          236 -211 175 -286 -387 -239 -262 -424 -247 149 -173 241 -43 vhcurveto
          -57 -69 -29 -125 rlineto
          58 hlineto
          83 28 -10 -29 -31 -38 -16 -74 -41 -44 5 7 -25 hvcurveto
          -35 -161 rlineto
          -9 24 54 -6 60 hhcurveto
          189 139 100 136 84 -48 52 -90 13 hvcurveto
          42 51 269 27 196 181 30 258 rlinecurve
          -378 hlineto
          -97 -21 -62 -57 -86 hhcurveto
          -84 -55 70 106 210 86 144 125 85 53 -58 -92 hvcurveto
          endchar
        </CharString>
        <CharString name="ccedillaacute">
          -107 1312 1597 rmoveto
          -348 hlineto
          -300 -321 rlineto
          314 hlineto
          -565 -1362 rmoveto
          -29 -125 rlineto
          58 hlineto
          83 28 -10 -29 -31 -38 -16 -74 -41 -44 5 7 -25 hvcurveto
          -35 -161 rlineto
          -9 24 54 -6 60 hhcurveto
          189 139 100 136 84 -48 52 -90 13 hvcurveto
          42 51 269 27 196 181 30 258 rlinecurve
          -378 hlineto
          -97 -21 -62 -57 -86 hhcurveto
          -84 -55 70 106 210 86 144 125 85 53 -58 -92 hvcurveto
          378 hlineto
          1 6 0 5 43 vvcurveto
          236 -211 175 -286 -387 -239 -262 -424 -247 149 -173 241 -43 vhcurveto
          endchar
        </CharString>
        <CharString name="ccircumflex">
          -107 706 1132 -88 callsubr
          286 461 -87 callsubr
        </CharString>
        <CharString name="cdotaccent">
          -107 706 1132 -88 callsubr
          80 133 -102 callgsubr
        </CharString>
        <CharString name="cedi">
          106 492 598 rmoveto
          266 122 210 171 48 vhcurveto
          30 callgsubr
          -169 -789 rlineto
          -79 43 -45 93 129 vvcurveto
          939 -70 rmoveto
          -407 hlineto
          -35 -109 -86 -79 -104 -25 rrcurveto
          30 callgsubr
          171 796 rlineto
          77 -35 48 -74 -95 vvcurveto
          -15 0 -5 -1 -4 vhcurveto
          405 hlineto
          4 27 1 21 26 vvcurveto
          249 -192 203 -268 58 vhcurveto
          24 112 rlineto
          -188 hlineto
          -19 -95 rlineto
          0 vlineto
          -471 -13 -329 -371 -524 vvcurveto
          -324 182 -224 296 -57 vhcurveto
          -22 -105 rlineto
          187 hlineto
          19 90 rlineto
          30 callgsubr
          372 11 283 227 53 334 rrcurveto
          endchar
        </CharString>
        <CharString name="cedilla">
          -238 226 -211 -91 callgsubr
        </CharString>
        <CharString name="cedillacmb">
          -303 -211 -91 callgsubr
        </CharString>
        <CharString name="cent">
          106 1293 543 rmoveto
          -378 hlineto
          -97 -26 -64 -49 -85 hhcurveto
          -66 -80 45 139 211 83 171 141 82 60 -45 -96 hvcurveto
          376 hlineto
          1 14 0 14 13 vvcurveto
          147 -100 161 -191 69 vhcurveto
          47 213 rlineto
          -313 hlineto
          -40 -187 rlineto
          -338 -49 -209 -290 -367 vvcurveto
          -213 116 -156 188 -67 vhcurveto
          -46 -218 rlineto
          313 hlineto
          38 186 293 31 170 197 28 223 rlinecurve
          endchar
        </CharString>
        <CharString name="checyrillic">
          -21 callgsubr
          endchar
        </CharString>
        <CharString name="chigreek">
          -115 852 -338 rmoveto
          71 82 10 12 36 hvcurveto
          57 268 rlineto
          -5 -11 -27 -5 -22 hhcurveto
          -72 -31 19 118 -44 hvcurveto
          -99 271 577 755 60 callgsubr
          -308 -433 rlineto
          -4 hlineto
          -83 249 rlineto
          140 -47 -76 60 -148 hhcurveto
          -52 -91 -11 -10 -37 hvcurveto
          -57 -269 rlineto
          5 13 30 5 21 hhcurveto
          52 29 -33 -97 37 hvcurveto
          127 -330 -539 -709 rlineto
          380 hlineto
          260 382 rlineto
          9 hlineto
          73 -202 rlineto
          -129 47 82 -61 151 hhcurveto
          endchar
        </CharString>
        <CharString name="circumflex">
          -259 930 1592 -87 callsubr
        </CharString>
        <CharString name="circumflexacutecmb">
          395 1592 -96 callsubr
          -140 395 -30 callgsubr
          endchar
        </CharString>
        <CharString name="circumflexacutecmb.short">
          22 callsubr
          -79 83 -28 callsubr
          endchar
        </CharString>
        <CharString name="circumflexbelowcmb">
          32 -165 -93 callsubr
        </CharString>
        <CharString name="circumflexcmb">
          422 1592 -87 callsubr
        </CharString>
        <CharString name="circumflexcmb.short">
          465 1872 -93 callsubr
        </CharString>
        <CharString name="circumflexgravecmb">
          806 1645 -27 callsubr
          -150 -53 -87 callsubr
        </CharString>
        <CharString name="circumflexgravecmb.short">
          22 callsubr
          222 83 -15 callsubr
          endchar
        </CharString>
        <CharString name="circumflexhookabovecmb">
          439 1836 -55 callgsubr
        </CharString>
        <CharString name="circumflexhookabovecmb.short">
          22 callsubr
          -2 174 rmoveto
          13 35 40 7 38 hhcurveto
          57 37 -25 -39 -48 -36 -44 -57 -22 hvcurveto
          78 -135 rlineto
          141 57 108 116 138 vvcurveto
          110 -92 68 -142 -59 -67 -11 -18 -44 vhcurveto
          endchar
        </CharString>
        <CharString name="circumflextildecmb">
          390 1572 rmoveto
          -314 hlineto
          -323 -316 rlineto
          296 hlineto
          159 164 rlineto
          8 hlineto
          89 -164 104 callgsubr
          -153 383 -105 callsubr
          endchar
        </CharString>
        <CharString name="circumflextildecmb.short">
          474 1913 -87 callgsubr
          -339 -71 -70 callgsubr
          endchar
        </CharString>
        <CharString name="colon">
          -689 261 -14 -35 callsubr
          147 693 -35 callsubr
          endchar
        </CharString>
        <CharString name="colon.uc">
          -689 299 167 -35 callsubr
          147 693 -35 callsubr
          endchar
        </CharString>
        <CharString name="coloncurrency">
          106 1073 1134 rmoveto
          41 -3 44 -5 38 -8 -368 -801 rcurveline
          -43 10 -37 13 -33 16 rrcurveto
          -129 132 rmoveto
          -22 48 -11 57 67 vvcurveto
          215 126 179 195 60 vhcurveto
          724 465 rmoveto
          -190 hlineto
          -67 -147 -31 11 -41 10 -46 9 rlinecurve
          54 117 rlineto
          -190 hlineto
          -45 -97 rlineto
          1 -18 -18 0 -17 hhcurveto
          -537 -331 -424 -451 -214 102 -180 184 -116 hvcurveto
          -107 -232 rlineto
          190 hlineto
          72 157 37 -14 38 -11 41 -9 rlinecurve
          -57 -123 rlineto
          190 hlineto
          45 97 rlineto
          -2 31 33 -1 33 hhcurveto
          44 83 9 6 20 hvcurveto
          74 339 rlineto
          -6 -34 -70 -10 -39 hhcurveto
          -7 -7 0 -7 hhcurveto
          endchar
        </CharString>
        <CharString name="comma">
          -692 219 -344 rmoveto
          11 callsubr
          endchar
        </CharString>
        <CharString name="commaaccent">
          -259 386 -475 -40 callsubr
        </CharString>
        <CharString name="commabelowcmb">
          -258 -475 -40 callsubr
        </CharString>
        <CharString name="copyright">
          370 882 -105 rmoveto
          432 362 359 430 440 -332 329 -442 -432 -362 -359 -430 -440 332 -329 442 hvcurveto
          177 vmoveto
          -338 -249 252 340 330 279 282 328 338 249 -252 -340 -330 -279 -282 -328 hvcurveto
          378 657 rmoveto
          178 24 -145 143 -205 hhcurveto
          -227 -168 -180 -243 -197 138 -136 199 180 126 95 172 47 hvcurveto
          -251 hlineto
          -50 -26 -28 -19 -43 hhcurveto
          -62 -33 42 80 132 64 106 80 61 32 -44 -79 -5 hvcurveto
          endchar
        </CharString>
        <CharString name="cruzeiro">
          106 1147 -21 rmoveto
          74 335 rlineto
          -9 -51 -63 -7 -29 hhcurveto
          -34 -33 1 3 -30 hvcurveto
          20 94 rlineto
          141 31 53 57 101 hhcurveto
          60 54 -14 -26 41 hvcurveto
          72 326 rlineto
          19 -33 -34 8 -48 hhcurveto
          -89 -78 -61 -104 -45 hvcurveto
          -17 hlineto
          29 150 rlineto
          -286 hlineto
          -107 -498 rlineto
          -71 59 -34 88 119 vvcurveto
          271 198 205 269 92 117 -19 -24 55 vhcurveto
          71 334 rlineto
          31 -78 -161 25 -127 hhcurveto
          -506 -362 -347 -478 -419 296 -279 446 115 95 11 8 27 hvcurveto
          endchar
        </CharString>
        <CharString name="currency">
          106 548 642 rmoveto
          111 94 96 111 111 94 -96 -111 -111 -94 -96 -111 -111 -94 96 111 vhcurveto
          869 361 rmoveto
          -178 226 -200 -165 rlineto
          56 -82 -98 32 -106 hhcurveto
          -55 -53 -9 -16 -50 hvcurveto
          -98 122 -274 -226 94 -117 rlineto
          -47 -77 -27 -90 -97 vvcurveto
          -71 15 -68 26 -61 vhcurveto
          -195 -161 178 -226 200 165 rlineto
          -56 82 98 -32 106 hhcurveto
          55 53 9 16 50 hvcurveto
          98 -122 274 226 -94 117 rlineto
          47 77 27 90 97 vvcurveto
          71 -15 68 -26 61 vhcurveto
          endchar
        </CharString>
        <CharString name="cyrilliccentraldescender">
          -627 429 63 callsubr
          endchar
        </CharString>
        <CharString name="cyrilliccentraldescendercap">
          -627 434 63 callgsubr
          endchar
        </CharString>
        <CharString name="cyrillicdescender">
          -291 283 -33 callgsubr
          endchar
        </CharString>
        <CharString name="cyrillicdescender.short">
          -291 238 28 callsubr
          endchar
        </CharString>
        <CharString name="cyrillicdescendercap">
          -291 279 -28 callgsubr
          endchar
        </CharString>
        <CharString name="cyrillicdescendercap.short">
          -291 223 29 callgsubr
          endchar
        </CharString>
        <CharString name="cyrillichook">
          -292 79 -290 -16 callsubr
          endchar
        </CharString>
        <CharString name="cyrillichookcap">
          -291 49 -348 16 callsubr
          0 vlineto
          -424 46 rlineto
          0 vlineto
          -81 -17 -33 -30 -74 81 callsubr
          endchar
        </CharString>
        <CharString name="cyrillictail">
          -292 174 4 callgsubr
          endchar
        </CharString>
        <CharString name="cyrillictailcap">
          -291 159 4 callsubr
          endchar
        </CharString>
        <CharString name="d">
          16 439 -16 -1 callgsubr
        </CharString>
        <CharString name="dagger">
          -341 674 1016 rmoveto
          226 hlineto
          67 313 110 callsubr
          56 262 rlineto
          -326 hlineto
          -56 -262 110 callsubr
          -67 -313 rlineto
          226 hlineto
          -101 -477 rlineto
          326 hlineto
          endchar
        </CharString>
        <CharString name="daggerdbl">
          -341 839 728 rmoveto
          57 269 110 callsubr
          16 72 15 72 rlineto
          226 hlineto
          57 269 110 callsubr
          39 181 rlineto
          -326 hlineto
          -39 -181 110 callsubr
          -57 -269 rlineto
          226 hlineto
          -15 -72 -16 -72 110 callsubr
          -57 -269 rlineto
          226 hlineto
          -40 -189 rlineto
          326 hlineto
          40 189 rlineto
          endchar
        </CharString>
        <CharString name="dblgrave">
          -259 772 1276 -43 callgsubr
        </CharString>
        <CharString name="dblgravecmb">
          173 1276 -43 callgsubr
        </CharString>
        <CharString name="dblgravecmb.short">
          -152 1555 -60 callsubr
          676 -321 -60 callsubr
          endchar
        </CharString>
        <CharString name="dcaron">
          348 1550 27 callgsubr
          -1433 -1459 -1 callgsubr
        </CharString>
        <CharString name="dcircumflexbelow">
          16 439 -16 -96 callgsubr
          153 -450 -93 callsubr
        </CharString>
        <CharString name="dcommaaccent">
          16 439 -16 -96 callgsubr
          -137 -760 -40 callsubr
        </CharString>
        <CharString name="dcroat">
          16 636 285 rmoveto
          -92 -62 75 111 188 106 150 132 92 61 -74 -111 -181 -110 -158 -127 hvcurveto
          886 1074 rmoveto
          -90 hlineto
          18 84 rlineto
          -397 hlineto
          -18 -84 rlineto
          -221 hlineto
          -40 -188 rlineto
          221 hlineto
          -52 -244 rlineto
          -8 hlineto
          122 -37 -114 71 -160 hhcurveto
          -317 -235 -306 -411 -259 141 -160 226 149 112 56 115 81 hvcurveto
          8 hlineto
          -33 -155 rlineto
          386 hlineto
          250 1171 rlineto
          90 hlineto
          endchar
        </CharString>
        <CharString name="ddotaccent">
          16 439 -16 -96 callgsubr
          690 1318 -102 callgsubr
        </CharString>
        <CharString name="ddotbelow">
          16 439 -16 -96 callgsubr
          -34 -767 -102 callgsubr
        </CharString>
        <CharString name="decyrillic">
          7 callgsubr
        </CharString>
        <CharString name="decyrillic.1">
          2 631 275 rmoveto
          -97 -60 83 126 5 hvcurveto
          174 6 96 129 125 61 callsubr
          -11 771 rmoveto
          -316 -208 -217 -328 -318 208 -208 319 391 235 265 499 20 hvcurveto
          494 20 -223 287 -429 hhcurveto
          -101 -102 -13 -22 -72 hvcurveto
          -67 -315 rlineto
          28 73 94 14 108 hhcurveto
          187 129 -101 -157 12 hvcurveto
          -20 hlineto
          66 -73 -73 26 -112 hhcurveto
          endchar
        </CharString>
        <CharString name="degree">
          -521 538 753 rmoveto
          201 151 151 201 201 -150 150 -202 -201 -151 -150 -201 -201 152 -151 200 hvcurveto
          1 215 rmoveto
          -73 -59 64 73 75 60 61 72 74 56 -61 -75 -73 -55 -64 -75 hvcurveto
          endchar
        </CharString>
        <CharString name="deltagreek">
          -38 578 -28 rmoveto
          378 271 236 317 232 -104 95 -256 180 hvcurveto
          -53 37 -21 25 30 vvcurveto
          43 27 33 79 99 104 -33 -57 114 vhcurveto
          68 255 rlineto
          66 -101 -180 42 -176 hhcurveto
          -281 -176 -125 -194 -93 53 -73 87 -52 hvcurveto
          -1 -4 -1 -4 rlineto
          -271 -53 -184 -175 -293 vvcurveto
          -269 205 -166 320 vhcurveto
          11 266 rmoveto
          -84 -47 61 112 194 91 120 127 81 48 -66 -109 -196 -88 -116 -128 hvcurveto
          endchar
        </CharString>
        <CharString name="dieresis">
          -259 524 1255 -107 callsubr
          endchar
        </CharString>
        <CharString name="dieresisacutecmb">
          108 1651 -30 callgsubr
          -356 -677 -107 callsubr
          endchar
        </CharString>
        <CharString name="dieresisacutecmb.short">
          156 1925 -28 callsubr
          -356 -647 -107 callsubr
          endchar
        </CharString>
        <CharString name="dieresisbelowcmb">
          -365 -450 -107 callsubr
          endchar
        </CharString>
        <CharString name="dieresiscaroncmb">
          -2 1255 -107 callsubr
          -309 359 12 callsubr
          endchar
        </CharString>
        <CharString name="dieresiscaroncmb.short">
          186 1926 13 callsubr
        </CharString>
        <CharString name="dieresiscmb">
          16 1255 -107 callsubr
          endchar
        </CharString>
        <CharString name="dieresiscmb.short">
          62 1559 -107 callsubr
          endchar
        </CharString>
        <CharString name="dieresisgravecmb">
          406 1645 -27 callsubr
          -131 -390 -107 callsubr
          endchar
        </CharString>
        <CharString name="dieresisgravecmb.short">
          467 1925 -15 callsubr
          -135 -366 -107 callsubr
          endchar
        </CharString>
        <CharString name="dieresismacroncmb">
          -2 1255 -107 callsubr
          260 585 -74 callgsubr
        </CharString>
        <CharString name="dieresismacroncmb.short">
          46 1836 rmoveto
          -48 callgsubr
          689 284 -81 callsubr
          -207 -104 rmoveto
          41 callgsubr
        </CharString>
        <CharString name="dieresistonosgreek">
          234 1029 1261 -39 callsubr
        </CharString>
        <CharString name="divide">
          106 1281 444 10 callgsubr
        </CharString>
        <CharString name="divide.uc">
          106 1303 578 10 callgsubr
        </CharString>
        <CharString name="djecyrillic">
          -1 592 937 rmoveto
          50 231 rlineto
          216 hlineto
          38 171 rlineto
          -217 hlineto
          22 104 rlineto
          -394 hlineto
          -22 -104 rlineto
          -138 hlineto
          -38 -171 rlineto
          139 hlineto
          -248 -1168 rlineto
          394 hlineto
          138 648 rlineto
          104 22 81 72 95 hhcurveto
          88 63 -56 -76 -21 -2 -21 -5 -26 hvcurveto
          -140 -657 rlineto
          -63 -13 -43 -28 -84 hhcurveto
          -16 -18 1 2 -11 hvcurveto
          -61 -278 rlineto
          -2 23 60 -3 39 hhcurveto
          278 188 130 223 47 hvcurveto
          157 736 rlineto
          9 48 5 46 41 vvcurveto
          183 -133 123 -202 -153 -124 -69 -120 -82 vhcurveto
          endchar
        </CharString>
        <CharString name="dlinebelow">
          16 439 -16 -96 callgsubr
          359 -504 -81 callsubr
          endchar
        </CharString>
        <CharString name="dollar">
          106 798 526 rmoveto
          92 -31 21 -29 -40 vvcurveto
          -69 -63 -48 -98 -8 vhcurveto
          -17 611 rmoveto
          -66 29 -32 39 42 vvcurveto
          68 57 45 90 8 vhcurveto
          90 -272 rmoveto
          52 246 49 -25 31 -43 2 -49 rlinecurve
          373 hlineto
          -4 209 -150 157 -237 52 34 161 rcurveline
          -147 hlineto
          -30 -143 rlineto
          1 -13 -14 0 -13 hhcurveto
          -343 -232 -180 -275 -178 126 -155 233 -64 hvcurveto
          71 -19 -53 -249 -66 22 -41 43 -3 57 rlinecurve
          -386 hlineto
          3 -226 158 -153 271 -42 -32 -152 rcurveline
          147 hlineto
          30 140 rlineto
          5 5 0 5 hhcurveto
          374 234 176 292 180 -105 128 -255 68 hvcurveto
          endchar
        </CharString>
        <CharString name="dotaccent">
          -259 739 1264 -102 callgsubr
        </CharString>
        <CharString name="dotaccentcmb">
          216 1264 -102 callgsubr
        </CharString>
        <CharString name="dotaccentcmb.short">
          288 1603 -102 callgsubr
        </CharString>
        <CharString name="dotbelowcmb">
          -155 -56 callgsubr
        </CharString>
        <CharString name="dotlessi">
          -746 -8 -44 callgsubr
          endchar
        </CharString>
        <CharString name="dotlessj">
          -747 623 1104 89 callsubr
          -241 -1134 rlineto
          -53 -11 -40 -34 -65 hhcurveto
          -30 -25 3 4 -16 hvcurveto
          -61 -277 rlineto
          -9 41 77 -8 56 hhcurveto
          238 179 128 207 44 hvcurveto
          endchar
        </CharString>
        <CharString name="dotmacroncmb">
          212 1242 -103 callgsubr
          464 598 -74 callgsubr
        </CharString>
        <CharString name="dotmacroncmb.short">
          268 1536 17 callsubr
        </CharString>
        <CharString name="doublebreve">
          -381 363 1894 rmoveto
          -5 -22 -2 -21 -19 vvcurveto
          -153 133 -97 220 249 191 49 callsubr
          -20 -60 -40 -76 hhcurveto
          -69 -42 33 56 6 -50 callgsubr
          endchar
        </CharString>
        <CharString name="doublebreve.short">
          -381 435 2234 rmoveto
          -5 -22 -2 -20 -20 vvcurveto
          -153 134 -97 220 249 190 49 callsubr
          -19 -61 -40 -76 hhcurveto
          -69 -42 33 57 5 -50 callgsubr
          endchar
        </CharString>
        <CharString name="dzecyrillic">
          -140 164 -100 callsubr
          endchar
        </CharString>
        <CharString name="dzhecyrillic">
          -15 1115 hmoveto
          235 1104 43 callsubr
          380 hlineto
          -60 -281 rlineto
          358 hlineto
          60 281 rlineto
          endchar
        </CharString>
        <CharString name="e">
          -73 474 682 -106 callgsubr
          endchar
        </CharString>
        <CharString name="eacute">
          -73 474 682 -106 callgsubr
          359 1302 -76 callgsubr
        </CharString>
        <CharString name="ebreve">
          -73 474 682 -106 callgsubr
          -174 1617 -78 callsubr
          endchar
        </CharString>
        <CharString name="ecaron">
          -73 474 682 -106 callgsubr
          302 1283 -77 callgsubr
        </CharString>
        <CharString name="ecedilla">
          -73 474 682 rmoveto
          105 26 87 71 103 hhcurveto
          95 66 -60 -84 -11 -1 -16 -2 -5 hvcurveto
          342 -216 rmoveto
          14 56 6 74 60 vvcurveto
          288 -206 188 -296 -376 -250 -276 -378 -275 155 -178 246 -42 vhcurveto
          -57 -69 -29 -125 rlineto
          58 hlineto
          83 28 -10 -29 -31 -38 -16 -74 -41 -44 5 7 -25 hvcurveto
          -35 -161 rlineto
          -9 24 54 -6 60 hhcurveto
          189 139 100 136 84 -48 52 -90 13 hvcurveto
          43 53 254 24 179 147 52 212 rlinecurve
          -368 hlineto
          -64 -19 -67 -44 -87 hhcurveto
          -119 -70 80 102 10 1 11 2 11 hvcurveto
          endchar
        </CharString>
        <CharString name="ecedillabreve">
          -73 980 1590 rmoveto
          -92 -23 -73 -56 -94 hhcurveto
          -83 -48 43 74 10 1 10 2 11 hvcurveto
          -232 hlineto
          -3 -22 -2 -17 -16 vvcurveto
          -163 137 -116 194 244 172 132 202 48 vhcurveto
          -746 -908 rmoveto
          105 26 87 71 103 hhcurveto
          95 66 -60 -84 -11 -1 -16 -2 -5 hvcurveto
          -422 -768 rmoveto
          -29 -125 rlineto
          58 hlineto
          83 28 -10 -29 -31 -38 -16 -74 -41 -44 5 7 -25 hvcurveto
          -35 -161 rlineto
          -9 24 54 -6 60 hhcurveto
          189 139 100 136 84 -48 52 -90 13 hvcurveto
          43 53 254 24 179 147 52 212 rlinecurve
          -368 hlineto
          -64 -19 -67 -44 -87 hhcurveto
          -119 -70 80 102 10 1 11 2 11 hvcurveto
          752 hlineto
          14 56 6 74 60 vvcurveto
          288 -206 188 -296 -376 -250 -276 -378 -275 155 -178 246 -42 vhcurveto
          endchar
        </CharString>
        <CharString name="ecircumflex">
          -73 474 682 -106 callgsubr
          373 1619 -87 callsubr
        </CharString>
        <CharString name="ecircumflexacute">
          -73 474 682 -106 callgsubr
          342 1599 -96 callsubr
          -140 395 -30 callgsubr
          endchar
        </CharString>
        <CharString name="ecircumflexbelow">
          -73 474 682 -106 callgsubr
          128 -138 -93 callsubr
        </CharString>
        <CharString name="ecircumflexdotbelow">
          -73 474 682 -106 callgsubr
          373 1619 -96 callsubr
          -615 -1738 -102 callgsubr
        </CharString>
        <CharString name="ecircumflexgrave">
          -73 474 682 -106 callgsubr
          753 1652 -27 callsubr
          -150 -53 -87 callsubr
        </CharString>
        <CharString name="ecircumflexhookabove">
          -73 474 682 -106 callgsubr
          386 1843 -55 callgsubr
        </CharString>
        <CharString name="ecircumflextilde">
          -73 474 682 -106 callgsubr
          337 1579 rmoveto
          -314 hlineto
          -323 -316 rlineto
          296 hlineto
          159 164 rlineto
          8 hlineto
          89 -164 104 callgsubr
          -153 383 -105 callsubr
          endchar
        </CharString>
        <CharString name="ecyrillic">
          3 callsubr
          endchar
        </CharString>
        <CharString name="edblgrave">
          -73 474 682 -106 callgsubr
          124 1303 -43 callgsubr
        </CharString>
        <CharString name="edieresis">
          -73 474 682 -106 callgsubr
          -33 1282 -107 callsubr
          endchar
        </CharString>
        <CharString name="edotaccent">
          -73 474 682 -106 callgsubr
          167 1291 -102 callgsubr
        </CharString>
        <CharString name="edotbelow">
          -73 474 682 -106 callgsubr
          -59 -455 -102 callgsubr
        </CharString>
        <CharString name="efcyrillic">
          471 920 -353 rmoveto
          71 335 rlineto
          459 12 298 262 390 vvcurveto
          287 -195 181 -320 9 vhcurveto
          68 320 rlineto
          -392 hlineto
          -68 -320 rlineto
          -460 -12 -297 -261 -391 vvcurveto
          -287 195 -181 320 -9 vhcurveto
          -71 -335 rlineto
          817 972 rmoveto
          -194 -128 -153 -170 -9 vhcurveto
          122 579 rlineto
          110 -4 66 -84 -135 vvcurveto
          -857 -133 rmoveto
          194 127 154 169 8 vhcurveto
          -122 -579 rlineto
          -109 5 -65 83 135 vvcurveto
          endchar
        </CharString>
        <CharString name="egrave">
          -73 474 682 -106 callgsubr
          267 1302 -35 callgsubr
        </CharString>
        <CharString name="ehookabove">
          -73 474 682 -106 callgsubr
          9 1549 -68 callgsubr
        </CharString>
        <CharString name="eight">
          123 1343 -22 callsubr
        </CharString>
        <CharString name="eight.dnum">
          -522 701 184 -66 callgsubr
        </CharString>
        <CharString name="eight.numr">
          -522 855 907 -66 callgsubr
        </CharString>
        <CharString name="eight.subs">
          -522 629 -156 -66 callgsubr
        </CharString>
        <CharString name="eight.sups">
          -522 927 1249 -66 callgsubr
        </CharString>
        <CharString name="eight.tnum">
          106 1336 -22 callsubr
        </CharString>
        <CharString name="einvertedbreve">
          -73 474 682 -106 callgsubr
          517 1263 -60 callgsubr
        </CharString>
        <CharString name="elcyrillic">
          -60 579 542 -47 callsubr
        </CharString>
        <CharString name="ellipsis">
          477 261 -14 -35 callsubr
          583 hmoveto
          -48 callsubr
          583 hmoveto
          -48 callsubr
          endchar
        </CharString>
        <CharString name="emacron">
          -73 474 682 -106 callgsubr
          545 1483 -74 callgsubr
        </CharString>
        <CharString name="emacronacute">
          -73 474 682 -106 callgsubr
          55 1658 -30 callgsubr
          224 -476 -74 callgsubr
        </CharString>
        <CharString name="emacrongrave">
          -73 474 682 -106 callgsubr
          353 1652 -27 callsubr
          449 -189 -74 callgsubr
        </CharString>
        <CharString name="emcyrillic">
          329 361 26 callsubr
        </CharString>
        <CharString name="emdash">
          741 422 vmoveto
          2048 77 callsubr
          -2048 hlineto
          endchar
        </CharString>
        <CharString name="emdash.uc">
          741 27 548 rmoveto
          2048 77 callsubr
          -2048 hlineto
          endchar
        </CharString>
        <CharString name="emquad">
          675 endchar
        </CharString>
        <CharString name="emspace">
          677 endchar
        </CharString>
        <CharString name="encyrillic">
          -6 -3 hmoveto
          -34 callgsubr
        </CharString>
        <CharString name="endash">
          -283 422 vmoveto
          1024 77 callsubr
          -1024 hlineto
          endchar
        </CharString>
        <CharString name="endash.uc">
          -283 27 548 rmoveto
          1024 77 callsubr
          -1024 hlineto
          endchar
        </CharString>
        <CharString name="enquad">
          -349 endchar
        </CharString>
        <CharString name="enspace">
          1 endchar
        </CharString>
        <CharString name="eogonek">
          -73 673 -487 rmoveto
          84 59 11 15 34 hvcurveto
          29 callsubr
          40 44 85 90 67 158 104 hvcurveto
          120 78 64 134 21 86 rrcurveto
          -368 hlineto
          -64 -19 -67 -44 -87 hhcurveto
          -119 -70 80 102 10 1 11 2 11 hvcurveto
          752 hlineto
          14 56 6 74 60 vvcurveto
          288 -206 188 -296 -376 -250 -276 -378 -318 206 -187 316 vhcurveto
          13 -6 hlineto
          -97 -41 -104 -94 94 callsubr
          vhcurveto
          -199 1169 rmoveto
          105 26 87 71 103 hhcurveto
          95 66 -60 -84 -11 -1 -16 -2 -5 hvcurveto
          endchar
        </CharString>
</ttFont>
